<svg xmlns="http://www.w3.org/2000/svg">
<defs>
<font id="SunshinePoppy" horiz-adv-x="1014" >
  <font-face 
    font-family="Sunshine Poppy"
    font-weight="400"
    font-stretch="normal"
    units-per-em="2048"
    panose-1="2 0 5 0 0 0 0 0 0 0"
    ascent="1638"
    descent="-410"
    x-height="2043"
    cap-height="2057"
    bbox="-342 -418.003 2394 2062"
    underline-thickness="150"
    underline-position="-142"
    unicode-range="U+0020-U+F002"
  />
<missing-glyph horiz-adv-x="1024" 
d="M827 1805c-27.333 17.333 -46.667 34.6689 -58 52.002c-10.667 16.667 -12.667 30.334 -6 41.001c2.66699 4 -20.666 -7.33301 -69.999 -34c-2.66699 -1.33301 -60.667 -33.333 -174 -96c-4 102.667 17.333 191 64 265c-30 -13.333 -56.333 -20 -79 -20
c-20.667 -0.666992 -34.334 4.33301 -41.001 15c-2.66699 4 -3.66699 -18.667 -3 -68c0.666992 -8 2.33398 -68 5.00098 -180c-118 74 -190.667 123.667 -218 149c-9.33301 -60.667 -23 -98 -41 -112c-3.33301 -2 0.666992 -5.33301 12 -10
c6.66699 -2.66699 23.334 -8.33398 50.001 -17.001c70 -22 128 -43.333 174 -64c-140 -76 -229.667 -120.667 -269 -134c56.667 -33.333 87.667 -60.333 93 -81c1.33301 -4 7 -2 17 6c4.66699 4 18 16.333 40 37c53.333 50.667 101.333 91.334 144 122.001
c2.66699 -142.667 0.666992 -232.334 -6 -269.001c59.333 28.667 100.333 40 123 34c4.66699 -1.33301 5.66699 4 3 16l-16 50c-21.333 67.333 -36 125.666 -44 174.999c97.333 -57.333 166 -126 206 -206c5.33301 30 14.666 53.333 27.999 70
c11.333 16 23.666 23.333 36.999 22c6 -0.666992 -17 15.333 -69 48l-82 51c-48 29.333 -80.667 49.666 -98 60.999c93.333 51.333 186 77 278 77zM723.999 1317c-32.667 -1.33301 -58.6621 1.99805 -77.9951 9.99805c-18 7.33301 -27.333 17.333 -28 30
c0 4.66699 -12.667 -18 -38 -68l-87 -179c-62 82 -95.333 166.667 -100 254c-16.667 -28 -34.334 -48.667 -53.001 -62c-16.667 -12 -30.667 -15.667 -42 -11c-4.66699 2 7.66602 -17.333 36.999 -58l107 -144c-139.333 -6.66699 -227.333 -7.66699 -264 -3

<glyph glyph-name=".notdef" horiz-adv-x="1024" 
d="M827 1805c-27.333 17.333 -46.667 34.6689 -58 52.002c-10.667 16.667 -12.667 30.334 -6 41.001c2.66699 4 -20.666 -7.33301 -69.999 -34c-2.66699 -1.33301 -60.667 -33.333 -174 -96c-4 102.667 17.333 191 64 265c-30 -13.333 -56.333 -20 -79 -20
c-20.667 -0.666992 -34.334 4.33301 -41.001 15c-2.66699 4 -3.66699 -18.667 -3 -68c0.666992 -8 2.33398 -68 5.00098 -180c-118 74 -190.667 123.667 -218 149c-9.33301 -60.667 -23 -98 -41 -112c-3.33301 -2 0.666992 -5.33301 12 -10
c6.66699 -2.66699 23.334 -8.33398 50.001 -17.001c70 -22 128 -43.333 174 -64c-140 -76 -229.667 -120.667 -269 -134c56.667 -33.333 87.667 -60.333 93 -81c1.33301 -4 7 -2 17 6c4.66699 4 18 16.333 40 37c53.333 50.667 101.333 91.334 144 122.001
c2.66699 -142.667 0.666992 -232.334 -6 -269.001c59.333 28.667 100.333 40 123 34c4.66699 -1.33301 5.66699 4 3 16l-16 50c-21.333 67.333 -36 125.666 -44 174.999c97.333 -57.333 166 -126 206 -206c5.33301 30 14.666 53.333 27.999 70
c11.333 16 23.666 23.333 36.999 22c6 -0.666992 -17 15.333 -69 48l-82 51c-48 29.333 -80.667 49.666 -98 60.999c93.333 51.333 186 77 278 77zM723.999 1317c-32.667 -1.33301 -58.6621 1.99805 -77.9951 9.99805c-18 7.33301 -27.333 17.333 -28 30
c0 4.66699 -12.667 -18 -38 -68l-87 -179c-62 82 -95.333 166.667 -100 254c-16.667 -28 -34.334 -48.667 -53.001 -62c-16.667 -12 -30.667 -15.667 -42 -11c-4.66699 2 7.66602 -17.333 36.999 -58l107 -144c-139.333 -6.66699 -227.333 -7.66699 -264 -3
c27.333 -55.333 37.333 -93.666 30 -114.999c-1.33301 -4 4 -4.66699 16 -2c7.33301 1.33301 24.333 6.33301 51 15c70 22 129.667 37.667 179 47c-71.333 -142.667 -119 -230.334 -143 -263.001c65.333 4.66699 106.333 0.333984 123 -12.999
c3.33301 -2.66699 6.66602 2 9.99902 14l11 54c14.667 71.333 30.667 132 48 182c84 -115.333 134 -190 150 -224c32 58 59 91 81 99c4 1.33301 1.66699 6 -7 14c-4.66699 4.66699 -18.334 15.667 -41.001 33c-56.667 42.667 -102.334 81.667 -137.001 117
c112.667 8.66699 208.334 -8 287.001 -50c-12.667 28 -18.667 52.667 -18 74c0.666992 19.333 6.66699 32.333 18 39c5.33301 2.66699 -22.334 2.33398 -83.001 -0.999023c-20.667 -0.666992 -53 -2.33398 -97 -5.00098c-56 -3.33301 -94.333 -5.66602 -115 -6.99902
c46.667 96 107.667 170.333 183 223zM646.004 666.001c-30.667 -12 -56.665 -17.002 -77.998 -15.002c-19.333 1.33301 -31 7.66602 -35 18.999c-2 4.66699 -7 -20.666 -15 -75.999c0 -2.66699 -9 -68.334 -27 -197.001c-84 58 -142 127.667 -174 209
c-7.33301 -32 -17.666 -57 -30.999 -75c-12 -17.333 -24.333 -25.333 -37 -24c-4.66699 0 13.333 -14.333 54 -43c6 -4.66699 55 -39 147 -103c-130 -50.667 -213.333 -79.667 -250 -87c44 -43.333 66 -76.333 66 -99c0 -4.66699 5 -3.66699 15 3c6 4 20.667 14.333 44 31
c59.333 42.667 110.666 76.334 153.999 101.001c-22 -158 -39.333 -256.667 -52 -296c60.667 26 101 35 121 27c4 -2 5.66699 3.33301 5 16c-0.666992 7.33301 -2.66699 25.666 -6 54.999c-9.33301 72.667 -13.333 135.667 -12 189
c116 -83.333 186.667 -138.666 212 -165.999c12.667 65.333 28 105.333 46 120c3.33301 2.66699 -0.333984 6.33398 -11.001 11.001c-6 2.66699 -22.667 8.33398 -50 17.001c-66.667 22.667 -122 45.667 -166 69c104 44 200 58.333 288 43c-20.667 22 -34 43.333 -40 64
c-6 18.667 -4.33301 33 5 43c3.33301 4 -23.334 -5 -80.001 -27l-90 -36l-107 -42c14 105.333 48.667 195 104 269z" />
    <glyph glyph-name="space" unicode=" " horiz-adv-x="508" 
 />
    <glyph glyph-name="space" unicode="&#xa0;" horiz-adv-x="508" 
 />
    <glyph glyph-name="exclam" unicode="!" horiz-adv-x="672" 
d="M474 240c26.667 -23.333 39 -53 37 -89c-2 -34.667 -17.667 -65.667 -47 -93c-31.333 -28.667 -71.333 -45.334 -120 -50.001c-49.333 -4 -89.333 7.66699 -120 35c-28.667 24.667 -44 56 -46 94c-2 38.667 10.667 71.334 38 98.001c30 30 72.667 45 128 45
c56 0 99.333 -13.333 130 -40zM244 1578c58 -390 55.334 -769.667 -7.99902 -1139h253c-31.333 258 -53.333 518.667 -66 782c-24.667 526.667 9.66602 803.667 102.999 831c-104 -19.333 -233 -19.333 -387 0c41.333 -121.333 76.333 -279.333 105 -474z" />
    <glyph glyph-name="quotedbl" unicode="&#x22;" horiz-adv-x="855" 
d="M574 2027c74 -12 125 -3.33398 153 25.999c-10 -95.333 -47 -209.666 -111 -342.999c-70.667 -148 -139 -234.333 -205 -259c4.66699 21.333 15.667 66.666 33 135.999c13.333 54 23 98.667 29 134c18 106.667 17.667 217.334 -1 332.001
c31.333 -12 65.333 -20.667 102 -26zM273 2027c74 -12 125 -3.33398 153 25.999c-10 -95.333 -47 -209.666 -111 -342.999c-70.667 -148 -139 -234.333 -205 -259c4.66699 21.333 15.667 66.666 33 135.999c13.333 54 23 98.667 29 134
c18 106.667 17.667 217.334 -1 332.001c31.333 -12 65.333 -20.667 102 -26z" />
    <glyph glyph-name="ampersand" unicode="&#x26;" horiz-adv-x="1037" 
d="M741 749c6.66699 -123.333 7.00098 -235.999 1.00098 -337.999c-11.333 -203.333 -48.666 -249.333 -111.999 -138c-22 39.333 -76.667 120 -164 242c-84.667 118.667 -144 209 -178 271c-52.667 96 -72.667 167 -60 213c15.333 56.667 78 80.667 188 72
c94 -7.33301 160.333 -11.666 199 -12.999c-18 57.333 -28 111 -30 161c-102 50 -186 151.667 -252 305c-55.333 129.333 -78.666 221 -69.999 275c10.667 65.333 67 70.666 169 15.999c148 -78.667 254.667 -209 320 -391l16 137c-12.667 74 -41.667 143.667 -87 209
c-44.667 64.667 -96.334 112 -155.001 142v132h-111c26.667 -30 40 -65.333 40 -106c-64.667 12.667 -123.334 -2.33301 -176.001 -45c-60 -48.667 -107 -129.334 -141 -242.001c-32.667 -108 5.66602 -220 114.999 -336c54 -58 111.667 -105 173 -141
c-48.667 4.66699 -98 -0.666016 -148 -15.999c-100 -30.667 -152.333 -97.667 -157 -201c-4 -74 29.667 -194 101 -360c77.333 -181.333 160.333 -316 249 -404v-190c32 -10.667 71.667 -10.667 119 0c-18.667 7.33301 -35 33.333 -49 78c-10 32 -15 53.333 -15 64
c84.667 -58.667 159.667 -53.334 225 15.999c76 80.667 136.333 247 181 499z" />
    <glyph glyph-name="quotesingle" unicode="'" horiz-adv-x="507" 
d="M273 2027c74 -12 125 -3.33398 153 25.999c-10 -95.333 -47 -209.666 -111 -342.999c-70.667 -148 -139 -234.333 -205 -259c4.66699 21.333 15.667 66.666 33 135.999c13.333 54 23 98.667 29 134c18 106.667 17.667 217.334 -1 332.001
c31.333 -12 65.333 -20.667 102 -26z" />
    <glyph glyph-name="asterisk" unicode="*" horiz-adv-x="1024" 
d="M826 1801c-28.667 18.667 -48.666 37.665 -59.999 56.998c-10.667 18 -12.667 32.667 -6 44c2.66699 4 -21.333 -8 -72 -36c-2.66699 -2 -62.334 -36.667 -179.001 -104c-4 110 18 205 66 285c-30.667 -14.667 -57.667 -22 -81 -22c-21.333 0 -35.333 5.66699 -42 17
c-2.66699 4.66699 -3.66699 -20 -3 -74c0 -8 1.33301 -72.333 4 -193c-120.667 80 -195.334 133.667 -224.001 161c-9.33301 -66 -23.333 -106.333 -42 -121c-3.33301 -2.66699 0.666992 -6.33398 12 -11.001c6.66699 -2.66699 24 -8.66699 52 -18
c72 -24 131.333 -47 178 -69c-144 -82 -236 -130 -276 -144c58 -36 90 -65 96 -87c1.33301 -4.66699 7 -2.66699 17 6c5.33301 4.66699 19 18 41 40c54.667 54.667 104.334 98.334 149.001 131.001c2.66699 -153.333 0.333984 -249.666 -6.99902 -288.999
c61.333 30.667 103.666 43 126.999 37c4.66699 -1.33301 5.66699 4.33398 3 17.001l-16 54c-22 72 -37.333 134.333 -46 187c100 -61.333 170.667 -135 212 -221c6 32 15.667 57.333 29 76c12 16.667 24.667 24.334 38 23.001c6 -0.666992 -17.333 16.333 -70 51l-85 55
l-101 66c96 55.333 191.333 82.666 286 81.999z" />
    <glyph glyph-name="comma" unicode="," horiz-adv-x="557" 
d="M244 282c74 -12 125 -3.33398 153 25.999c-10 -95.333 -47 -209.666 -111 -342.999c-70.667 -148 -139 -234.333 -205 -259c4.66699 21.333 15.667 66.666 33 135.999c13.333 54 23 98.667 29 134c18 106.667 17.667 217.334 -1 332.001
c31.333 -12 65.333 -20.667 102 -26z" />
    <glyph glyph-name="period" unicode="." horiz-adv-x="557" 
d="M406 236c27.333 -23.333 39.665 -53 36.998 -89c-2 -34.667 -17.333 -65.667 -46 -93c-31.333 -28.667 -71.666 -45.334 -120.999 -50.001c-48.667 -4 -88.667 7.66699 -120 35c-28 24.667 -43 56 -45 94c-2 38.667 10.333 71.334 37 98.001
c30.667 30 73.334 45 128.001 45c56.667 0 100 -13.333 130 -40z" />
    <glyph glyph-name="zero" unicode="0" horiz-adv-x="1171" 
d="M475 207c-87.333 120.667 -151.001 297.331 -191.001 529.998c-41.333 240 -43.666 464 -6.99902 672c42 236 128 400.667 258 494c72 52 146.667 7.33301 224 -134c71.333 -132 126.666 -310 165.999 -534c41.333 -233.333 51.333 -446.666 30 -639.999
c-23.333 -221.333 -85 -373.666 -185 -456.999c-101.333 -84.667 -199.666 -61.667 -294.999 69zM249.999 1714c-84.667 -197.333 -131.334 -432.334 -140.001 -705.001c-8.66699 -278.667 25.666 -511 102.999 -697c88 -210 215.667 -314 383 -312s293.333 111.333 378 328
c74.667 190.667 106.334 427.334 95.001 710.001c-11.333 274 -58.666 508.333 -141.999 703c-90 211.333 -200.333 313.666 -331 306.999c-138.667 -7.33301 -254 -118.666 -346 -333.999z" />
    <glyph glyph-name="one" unicode="1" horiz-adv-x="683" 
d="M66 2043c151.333 -20 230.333 -336.333 237 -949c4 -405.333 -13.667 -770.333 -53 -1095c83.333 -5.33301 164.333 -5.33301 243 0l-72 2044h-355z" />
    <glyph glyph-name="two" unicode="2" 
d="M174 1522c6.66699 104.667 31.665 202 74.998 292c87.333 179.333 225 232 413 158s134 -397 -162 -969c-148 -286 -314.667 -564.333 -500 -835l13 -168l791 3c40.667 68.667 78.334 125.334 113.001 170.001c-177.333 -47.333 -447.333 -69 -810 -65
c226.667 295.333 415.334 597.333 566.001 906c131.333 270 196.333 489 195 657c-2 209.333 -108.333 332.666 -319 369.999c-160 28.667 -299.333 -31 -418 -179c-60 -73.333 -103.667 -150 -131 -230z" />
    <glyph glyph-name="three" unicode="3" horiz-adv-x="1085" 
d="M244 1623c16 91.333 53 175.665 111 252.998c58.667 77.333 124.334 129.333 197.001 156c79.333 28.667 152 20.667 218 -24c75.333 -50.667 134.333 -145.667 177 -285c36 -120 -6.66699 -244.667 -128 -374c-60.667 -64 -125 -116.333 -193 -157
c54 5.33301 109 -0.666992 165 -18c111.333 -34 169.666 -108.667 174.999 -224c4 -85.333 -35.333 -223.333 -118 -414c-90 -208 -185.667 -358.667 -287 -452c-102.667 -95.333 -194.334 -109.666 -275.001 -42.999c-96 80 -171 272.667 -225 578l214 100
c-8 -138 -8.66699 -263.667 -2 -377c12.667 -226.667 54.334 -278.334 125.001 -155.001c24.667 44 85.667 134 183 270c94.667 132.667 160.667 233.334 198 302.001c58.667 107.333 81 186.666 67 237.999c-16.667 63.333 -86.667 90 -210 80
c-104 -8 -177.667 -12.667 -221 -14c20 63.333 31.333 123 34 179c28 14 60.667 38.667 98 74c75.333 70.667 136 159.334 182 266.001c62 144 88 246.333 78 307c-11.333 72.667 -74.333 78.334 -189 17.001c-164 -87.333 -282.667 -232.333 -356 -435z" />
    <glyph glyph-name="four" unicode="4" horiz-adv-x="1209" 
d="M841 659l-594 -5l591 1207zM963 658c0 12 4.33496 475.333 13.002 1390c-87.333 -46.667 -162 -75.667 -224 -87c-50.667 -145.333 -116.667 -308 -198 -488c-162.667 -359.333 -321.334 -624 -476.001 -794c-12.667 -119.333 -18.334 -174.666 -17.001 -165.999
c312 8.66699 574 8.66699 786 0c14 -202 -15.667 -372 -89 -510c107.333 -3.33301 176 -4 206 -2c2 257.333 2 428.666 0 513.999c82.667 4.66699 139.667 3.66699 171 -3c2 14 2 62.667 0 146c-90.667 -1.33301 -148 -1.33301 -172 0z" />
    <glyph glyph-name="five" unicode="5" 
d="M29 1543c30.667 -3.33301 69.6611 -3.66992 116.994 -1.00293c58 2.66699 94.667 3.66699 110 3c82.667 -2.66699 149.334 -30.667 200.001 -84c106.667 -113.333 180.334 -261.666 221.001 -444.999c76 -346 95.333 -605 58 -777
c-24.667 -114 -76.667 -165.667 -156 -155c-94 12.667 -223.667 112.667 -389 300c-43.333 -91.333 -81.666 -148.666 -114.999 -171.999c63.333 -48 137 -92 221 -132c166.667 -80 300.334 -100 401.001 -60c61.333 24.667 111.333 82.667 150 174
c38.667 90.667 60.334 199.667 65.001 327c9.33301 302.667 -71 584 -241 844c-61.333 88 -127.333 148.667 -198 182c-66.667 32 -174.667 56.333 -324 73c0 104 -4.66699 215 -14 333l726 -43c-73.333 38.667 -119.666 83 -138.999 133c-65.333 -4 -306 -2.33301 -722 5
c38 -47.333 47.667 -215.666 29 -504.999z" />
    <glyph glyph-name="six" unicode="6" horiz-adv-x="1075" 
d="M266 205c-18 106 1.33203 255.333 57.999 448c53.333 182.667 123 349.667 209 501c91.333 160.667 173 252 245 274c74.667 22 114.667 -30.667 120 -158c4 -111.333 -18 -259.333 -66 -444c-46 -178 -102.333 -337.667 -169 -479
c-71.333 -152 -134.666 -238.333 -189.999 -259c-117.333 -44 -186.333 -5 -207 117zM339.999 1013c-68.667 -154.667 -124.001 -305.666 -166.001 -452.999c6.66699 150.667 39 325 97 523c116 396 301.333 712.333 556 949c-34.667 3.33301 -106 7.66602 -214 12.999
c-77.333 -57.333 -183.666 -269.333 -318.999 -636c-142.667 -386 -213 -679.333 -211 -880c14 -252 76.333 -415.667 187 -491c94.667 -64 207 -57 337 21c60 36 122.333 140 187 312c62.667 165.333 109.667 343 141 533c33.333 204.667 37.333 365 12 481
c-28.667 134 -94 185.667 -196 155c-135.333 -41.333 -272.333 -217 -411 -527z" />
    <glyph glyph-name="seven" unicode="7" horiz-adv-x="1046" 
d="M63 2048l0.000976562 -175.999l715 6l-102 -266c-169.333 -7.33301 -284 0 -344 22c0 -98 -14.333 -155 -43 -171c34 -2.66699 148.333 8 343 32l-569 -1491c73.333 -5.33301 144.666 -5.33301 213.999 0c36 301.333 197.333 803.666 484 1507
c77.333 10 146 19.333 206 28v95c-45.333 -5.33301 -99 -10.333 -161 -15c80.667 193.333 144.667 336.333 192 429c-122 -32.667 -433.667 -32.667 -935 0z" />
    <glyph glyph-name="eight" unicode="8" horiz-adv-x="941" 
d="M361 158c-51.333 97.333 -82.667 242.999 -94 436.999c-10.667 186 -0.333984 360.667 30.999 524c34 176 84 286.667 150 332s130 14 192 -94c57.333 -100 98.666 -237.333 123.999 -412c26.667 -181.333 27.334 -347.666 2.00098 -498.999
c-29.333 -172 -88.666 -290.333 -177.999 -355c-92 -65.333 -167.667 -43 -227 67zM545.999 1975c38.667 -30.667 69 -72.668 91 -126.001c24 -57.333 29.667 -110 17 -158c-15.333 -56.667 -54.333 -97.667 -117 -123c-32 -12.667 -62.333 -1 -91 35
c-26 32 -45.333 76.667 -58 134c-13.333 56.667 -16.333 109 -9 157c8 52.667 27.667 87.334 59 104.001s67.333 9 108 -23zM588.999 1498c-15.333 19.333 -16.668 33.3281 -4.00098 41.9951c14.667 0.666992 20.334 1 17.001 1c26.667 0 48.334 26.333 65.001 79
s23.334 111.334 20.001 176.001c-4 72.667 -20.333 131.667 -49 177c-34 53.333 -81 80 -141 80c-62 0 -111 -24.333 -147 -73c-32 -42.667 -50 -97 -54 -163c-4 -64 6 -121.667 30 -173c25.333 -55.333 60.333 -88.333 105 -99h-1c13.333 -24 13.333 -39.667 0 -47
c0.666992 0.666992 0 0.333984 -2 -0.999023c-110 -59.333 -193.667 -172.666 -251 -339.999c-52 -152 -73.667 -319.667 -65 -503s45.667 -335 111 -455c70.667 -131.333 162 -196 274 -194c111.333 2.66699 198.666 70.334 261.999 203.001
c57.333 118.667 88 270.334 92 455.001c4 178 -16.667 344.333 -62 499c-48.667 164.667 -115.334 276.667 -200.001 336v0z" />
    <glyph glyph-name="nine" unicode="9" horiz-adv-x="1089" 
d="M814 1835c18 -106 -0.999023 -255.332 -56.999 -447.999c-53.333 -182.667 -123 -349.667 -209 -501c-91.333 -160.667 -173.333 -252 -246 -274c-74.667 -22 -114.334 30.333 -119.001 157c-4 111.333 18 259.666 66 444.999c46 178 102 337.667 168 479
c72 152 135.333 238.333 190 259c117.333 44 186.333 5 207 -117zM740.001 1027c69.333 154.667 124.998 305.668 166.998 453.001c-7.33301 -150.667 -40 -325 -98 -523c-116 -396 -301.333 -712.333 -556 -949c34.667 -4 106 -8.33301 214 -13
c77.333 57.333 184 269.333 320 636c142.667 385.333 212.667 678.666 210 879.999c-13.333 252 -75.666 415.667 -186.999 491c-94.667 64 -207 57 -337 -21c-59.333 -36 -121.666 -140 -186.999 -312c-62.667 -165.333 -109.334 -343 -140.001 -533
c-33.333 -204.667 -37.666 -365 -12.999 -481c29.333 -134 95 -185.667 197 -155c135.333 41.333 272 217 410 527z" />
    <glyph glyph-name="colon" unicode=":" horiz-adv-x="557" 
d="M396 819c27.333 -23.333 39.665 -53 36.998 -89c-2 -34.667 -17.333 -65.667 -46 -93c-31.333 -28.667 -71.666 -45.334 -120.999 -50.001c-48.667 -4 -88.667 7.66699 -120 35c-28 24.667 -43 56 -45 94c-2 38.667 10.333 71.334 37 98.001
c30.667 30 73.334 45 128.001 45c56.667 0 100 -13.333 130 -40zM395.999 240c27.333 -23.333 39.665 -53 36.998 -89c-2 -34.667 -17.333 -65.667 -46 -93c-31.333 -28.667 -71.666 -45.334 -120.999 -50.001c-48.667 -4 -88.667 7.66699 -120 35c-28 24.667 -43 56 -45 94
c-2 38.667 10.333 71.334 37 98.001c30.667 30 73.334 45 128.001 45c56.667 0 100 -13.333 130 -40z" />
    <glyph glyph-name="semicolon" unicode=";" horiz-adv-x="557" 
d="M386 770c27.333 -23.333 39.665 -53 36.998 -89c-2 -34.667 -17.333 -65.667 -46 -93c-31.333 -28.667 -71.666 -45.334 -120.999 -50.001c-48.667 -4 -88.667 7.66699 -120 35c-28 24.667 -43 56 -45 94c-2 38.667 10.333 71.334 37 98.001
c30.667 30 73.334 45 128.001 45c56.667 0 100 -13.333 130 -40zM243.999 282c74 -12 125 -3.33398 153 25.999c-10 -95.333 -47 -209.666 -111 -342.999c-70.667 -148 -139 -234.333 -205 -259c4.66699 21.333 15.667 66.666 33 135.999c13.333 54 23 98.667 29 134
c18 106.667 17.667 217.334 -1 332.001c31.333 -12 65.333 -20.667 102 -26z" />
    <glyph glyph-name="semicolon" unicode="&#x37e;" horiz-adv-x="557" 
d="M386 770c27.333 -23.333 39.665 -53 36.998 -89c-2 -34.667 -17.333 -65.667 -46 -93c-31.333 -28.667 -71.666 -45.334 -120.999 -50.001c-48.667 -4 -88.667 7.66699 -120 35c-28 24.667 -43 56 -45 94c-2 38.667 10.333 71.334 37 98.001
c30.667 30 73.334 45 128.001 45c56.667 0 100 -13.333 130 -40zM243.999 282c74 -12 125 -3.33398 153 25.999c-10 -95.333 -47 -209.666 -111 -342.999c-70.667 -148 -139 -234.333 -205 -259c4.66699 21.333 15.667 66.666 33 135.999c13.333 54 23 98.667 29 134
c18 106.667 17.667 217.334 -1 332.001c31.333 -12 65.333 -20.667 102 -26z" />
    <glyph glyph-name="less" unicode="&#x3c;" 
d="M927 1074l-625 -359l625 -355v-167l-840 481v83l840 484v-167z" />
    <glyph glyph-name="equal" unicode="=" 
d="M87 631h840v-140h-840v140zM87 943h840v-140h-840v140z" />
    <glyph glyph-name="greater" unicode="&#x3e;" 
d="M87 1241l840 -484v-83l-840 -481v167l625 355l-625 359v167z" />
    <glyph glyph-name="question" unicode="?" horiz-adv-x="1003" 
d="M612 236c26.667 -23.333 39 -53 37 -89c-2 -34.667 -17.667 -65.667 -47 -93c-31.333 -28.667 -71.333 -45.334 -120 -50.001c-49.333 -4 -89.333 7.66699 -120 35c-28.667 24.667 -44 56 -46 94c-2 38.667 10.667 71.334 38 98.001c30 30 72.667 45 128 45
c56 0 99.333 -13.333 130 -40zM172 1348c-28.667 107.333 -31.998 211.998 -9.99805 313.998c44 203.333 192.667 292.333 446 267c125.333 -12.667 197.666 -88.667 216.999 -228c16 -119.333 -6.33301 -272.333 -67 -459c-55.333 -167.333 -128 -324.666 -218 -471.999
c-90.667 -147.333 -169.334 -236.666 -236.001 -267.999c55.333 -4.66699 143 -3.66699 263 3c123.333 230 217.333 466.333 282 709c57.333 212.667 73 386 47 520c-32 168 -128 269.667 -288 305c-136 30 -271.667 0.333008 -407 -89c-60.667 -40 -109 -86.333 -145 -139
c-37.333 -56 -56 -112.333 -56 -169z" />
    <glyph glyph-name="at" unicode="@" horiz-adv-x="2019" 
d="M655 485c-63.333 75.333 -95.001 174.666 -95.001 297.999c0 121.333 39.667 221.333 119 300c78.667 78 178.334 117 299.001 117c157.333 0.666992 262.666 -41.666 315.999 -126.999c34.667 -56 52 -152.667 52 -290c0 -117.333 -43.667 -217.333 -131 -300
c-85.333 -80 -184.666 -119 -297.999 -117c-110 2 -197.333 41.667 -262 119zM1952 973c7.33301 179.333 -24.3291 349.668 -94.9961 511.001c-74.667 169.333 -181.667 303.333 -321 402c-154 108 -332.667 162 -536 162c-294 0 -526.667 -106.667 -698 -320
c-154.667 -192 -231.667 -426.667 -231 -704c0.666992 -276.667 78.667 -511.334 234 -704.001c172 -213.333 403.667 -320 695 -320c112 0 216.333 16.667 313 50l46 147c-48 -23.333 -99.333 -43.333 -154 -60c-259.333 -79.333 -479.666 -49.333 -660.999 90
c-164 126 -266 311 -306 555c-40.667 243.333 -8.33398 472.333 96.999 687c116 238 298.667 401 548 489c140.667 49.333 281 36.333 421 -39c129.333 -69.333 240.333 -180.666 333 -333.999c92 -151.333 149 -314.666 171 -489.999
c23.333 -187.333 1.66602 -356.333 -65.001 -507c-37.333 -70 -74.333 -114.667 -111 -134c-47.333 -21.333 -74 -3.66602 -80 53.001c-14 136 -21 260.667 -21 374c0 18 5.66699 104 17 258c8.66699 121.333 9 204.666 1 249.999
c-20.667 109.333 -63.334 191.666 -128.001 246.999c-88.667 76 -232.334 120.667 -431.001 134c-182 13.333 -324.667 -28.334 -428 -125.001c-51.333 -48 -84.666 -97.333 -99.999 -148l146 -196c-10.667 64.667 -3 130.334 23 197.001
c53.333 134 174.666 205.667 363.999 215c188.667 9.33301 309 -76.334 361 -257.001c26 -90 33 -181 21 -273c-8 33.333 -28.667 66.666 -62 99.999c-68 66.667 -166.667 100 -296 100c-230 0 -392.333 -75.667 -487 -227c-61.333 -97.333 -91.333 -221.666 -90 -372.999
c0.666992 -136 32 -252 94 -348c87.333 -134.667 224.333 -202.334 411 -203.001c158 -0.666992 277 55.333 357 168c40 56 64.333 112.333 73 169l50 -169c35.333 -74 86.666 -109.667 153.999 -107c79.333 2.66699 156 65.667 230 189
c86.667 144.667 133.667 308.334 141 491.001z" />
    <glyph glyph-name="A" unicode="A" horiz-adv-x="1601" 
d="M293 304c-84 101.333 -126 234.666 -126 399.999c0 162 52.333 295.667 157 401c104.667 104.667 237 157 397 157c210 0 350.333 -57 421 -171c46 -74.667 69 -203.667 69 -387c0 -157.333 -58.333 -291.333 -175 -402c-113.333 -107.333 -245 -159.666 -395 -156.999
c-146 3.33301 -262 56.333 -348 159zM1492 13c-24 263.333 -35.6641 537 -34.9971 821c0 24.667 7.66699 140 23 346c11.333 162 11.666 273.333 0.999023 334c-27.333 146.667 -84 257 -170 331c-118 101.333 -309 161.333 -573 180
c-242 17.333 -431.333 -38.667 -568 -168c-68.667 -64.667 -113 -131 -133 -199l193 -262c-14.667 87.333 -4.33398 175.666 30.999 264.999c71.333 178.667 232.333 274.334 483 287.001c251.333 12.667 411.333 -101.666 480 -342.999
c34.667 -120.667 44 -242.667 28 -366c-10 44.667 -37.667 89.334 -83 134.001c-89.333 89.333 -220.333 134 -393 134c-306 0 -521.667 -101.333 -647 -304c-81.333 -130.667 -121.333 -297 -120 -499c1.33301 -182.667 43.333 -338 126 -466
c115.333 -180.667 297.333 -271.334 546 -272.001c209.333 -0.666992 367.333 74.333 474 225c53.333 75.333 85.666 150.666 96.999 225.999l-16 -413z" />
    <glyph glyph-name="B" unicode="B" horiz-adv-x="1395" 
d="M288 826c9.33301 95.333 35.667 191 79 287c85.333 192.667 213 289 383 289c100 0 180 -70 240 -210c49.333 -116 75.666 -251.333 78.999 -406c4 -189.333 -10 -326.666 -42 -411.999c-51.333 -136.667 -156.333 -211.334 -315 -224.001
c-307.333 -23.333 -448.666 202 -423.999 676zM1127 1385c-95.333 94 -216.332 140.999 -362.999 140.999c-113.333 0 -226 -33.667 -338 -101c-56.667 -33.333 -101.667 -66.666 -135 -99.999l24 723l-307 -4c99.333 -526.667 133 -929.667 101 -1209l-96 -835h166v272
c10 -45.333 37.333 -90.666 82 -135.999c89.333 -90.667 221.666 -136 396.999 -136c464.667 0 679.667 309.333 645 928c-11.333 199.333 -70 351.666 -176 456.999z" />
    <glyph glyph-name="C" unicode="C" horiz-adv-x="1328" 
d="M1185 1753c-32.667 58.667 -79.9971 114.664 -141.997 167.997c-124.667 106 -261.667 145.667 -411 119c-241.333 -43.333 -406.333 -163.333 -495 -360c-66.667 -148 -96.667 -367.333 -90 -658c7.33301 -278 52.666 -505 135.999 -681
c110.667 -233.333 280 -347 508 -341c201.333 5.33301 353.666 77 456.999 215c52 68.667 83.667 137 95 205l-240 210c14.667 -71.333 12.667 -142.666 -6 -213.999c-38 -142.667 -140 -214 -306 -214c-144.667 0 -245.667 95.333 -303 286
c-29.333 98.667 -53.333 277.667 -72 537c-14.667 210.667 9 408.334 71 593.001c75.333 224.667 186.666 324.334 333.999 299.001c140 -24 229.667 -107.333 269 -250c19.333 -71.333 24.333 -140 15 -206z" />
    <glyph glyph-name="D" unicode="D" horiz-adv-x="1467" 
d="M764 383c-63.333 -156.667 -148 -232.667 -254 -228c-75.333 2.66699 -132 68.334 -170 197.001c-34 114.667 -47.667 255.334 -41 422.001c7.33301 164.667 32 305.667 74 423c46 129.333 103 196.333 171 201c104 7.33301 184 -63.334 240 -212.001
c46 -120.667 66.333 -252.334 61 -395.001c-6 -151.333 -33 -287.333 -81 -408zM978 2049l4.99902 -696.002c-17.333 30 -47.666 59.667 -90.999 89c-86.667 59.333 -196.334 89 -329.001 89c-168.667 0 -295 -44.333 -379 -133c-94 -98 -147.333 -260 -160 -486
c-14 -254.667 19.333 -466 100 -634c87.333 -182 213.333 -272.667 378 -272c142.667 0 258.667 77 348 231c44.667 76.667 75 153.334 91 230.001l-36 -461c130 -8 222 -8 276 0c-109.333 670.667 -105.666 1212.33 11.001 1625c58.667 206 128 345.333 208 418h-422z" />
    <glyph glyph-name="E" unicode="E" horiz-adv-x="1261" 
d="M918 1552c0 -222.667 -97.999 -347.668 -293.999 -375.001c-170 -24 -323.333 -25.333 -460 -4c10 128 37.667 256 83 384c90.667 256.667 225 385.334 403 386.001c179.333 1.33301 268.666 -129 267.999 -391zM228.001 407.999
c-28.667 110 -49.9971 315.667 -63.9971 617c297.333 -0.666992 505.666 17.666 624.999 54.999c249.333 76.667 374 241.334 374 494.001c0 130 -40.333 238.667 -121 326c-92.667 101.333 -224.334 152 -395.001 152c-190.667 0 -355.667 -91.667 -495 -275
c-147.333 -194 -225.333 -443 -234 -747c-8.66699 -314.667 45.333 -566.334 162 -755.001c115.333 -186 268.666 -276.333 459.999 -271c158 4.66699 309.333 101.667 454 291c72 94 128.333 188 169 282l-272 131c-0.666992 -89.333 -15.667 -181 -45 -275
c-59.333 -187.333 -161.333 -290.666 -306 -309.999c-152 -20.667 -256 74.333 -312 285z" />
    <glyph glyph-name="F" unicode="F" horiz-adv-x="1247" 
d="M0 1240h201c46.667 538.667 214.334 808 503.001 808c136 0 250 -53.667 342 -161c45.333 -54 77.333 -108 96 -162l-272 -195c-2 94 -19.333 178.333 -52 253c-64.667 150 -173.667 178 -327 84c-94 -57.333 -144.667 -266.333 -152 -627h331l52 -272l-405 146
c42 -342 131.333 -712.333 268 -1111c-124.667 -4 -244 -4 -358 0c-1.33301 40 -5 108.333 -11 205c-8.66699 129.333 -14.334 220.666 -17.001 273.999c-13.333 252.667 -15.333 468 -6 646c-90 12.667 -154.333 18.334 -193 17.001c2 20 2 51.667 0 95z" />
    <glyph glyph-name="G" unicode="G" horiz-adv-x="1338" 
d="M904 866c-65.333 -62 -131.333 -86.334 -198 -73.001c-94 18.667 -170 64 -228 136c-82 101.333 -118.333 246.333 -109 435c10.667 218 48.667 373 114 465c69.333 96.667 180.333 141.334 333 134.001c154.667 -8 248 -127.667 280 -359c26 -190 12.667 -355 -40 -495
c-39.333 -104 -90 -185 -152 -243zM314 1823c-110.667 -142 -166.001 -324.004 -166.001 -546.004c-0.666992 -182 63.666 -331.333 192.999 -448c114.667 -103.333 250 -158.666 406 -165.999c117.333 -6 212.333 43 285 147c36 52 60.333 104.667 73 158
c-2.66699 -139.333 -22 -278.666 -58 -417.999c-72 -280 -192.667 -421.333 -362 -424s-299 102 -389 314c-45.333 106.667 -73.666 213.334 -84.999 320.001l-200 -173c42.667 -97.333 103.334 -194.333 182.001 -291c158.667 -194 329.667 -291 513 -291
c203.333 0 345.666 100 426.999 300c64.667 158 99 408 103 750c4 392 -3.33301 629.333 -22 712c-20.667 89.333 -56.667 156.333 -108 201c-55.333 48.667 -133.666 76.334 -234.999 83.001c-242 15.333 -427.667 -60.667 -557 -228z" />
    <glyph glyph-name="H" unicode="H" horiz-adv-x="1510" 
d="M26 2053c39.333 -244 73.668 -512.333 103.001 -805c58 -585.333 62.667 -999 14 -1241h166c-21.333 276.667 -21.333 512.334 0 707.001s65 350.334 131 467.001c87.333 154.667 210.333 233.667 369 237c85.333 1.33301 165 -46 239 -142
c69.333 -90.667 124 -210.667 164 -360c91.333 -340.667 79.666 -644.334 -35.001 -911.001c50.667 0 131.334 0.666992 242.001 2c26.667 254.667 20.667 509 -18 763c-34 223.333 -93.667 398.666 -179 525.999c-106.667 158.667 -250.334 238 -431.001 238
c-138 0 -258.667 -48.333 -362 -145c-51.333 -48 -89 -96.333 -113 -145l34 809h-324z" />
    <glyph glyph-name="I" unicode="I" horiz-adv-x="736" 
d="M272 1143c58 -390 55.334 -769.667 -7.99902 -1139h253c-31.333 258 -53.333 518.667 -66 782c-24.667 526.667 9.66602 803.667 102.999 831c-104 -19.333 -233 -19.333 -387 0c41.333 -121.333 76.333 -279.333 105 -474zM474.001 2017c26.667 -23.333 39 -53 37 -89
c-2 -34.667 -17.667 -65.667 -47 -93c-31.333 -28.667 -71.333 -45.334 -120 -50.001c-49.333 -4 -89.333 7.66699 -120 35c-28.667 24.667 -44 56 -46 94c-2 38.667 10.667 71.334 38 98.001c30 30 72.667 45 128 45c56 0 99.333 -13.333 130 -40z" />
    <glyph glyph-name="J" unicode="J" horiz-adv-x="1161" 
d="M996 2048c46.667 -341.333 69.333 -682.335 68 -1023c-2 -682.667 -121.333 -1024.33 -358 -1025c-368.667 -1.33301 -589.334 170.334 -662.001 515.001c87.333 -9.33301 184 -5 290 13c6 -60 25.667 -120.333 59 -181c65.333 -121.333 164.333 -183.666 297 -186.999
c74.667 -1.33301 123.334 85.667 146.001 261c20.667 156.667 18.667 356 -6 598c-24 234.667 -62.667 448 -116 640c-58 206.667 -119 336.334 -183 389.001h465z" />
    <glyph glyph-name="K" unicode="K" horiz-adv-x="1382" 
d="M627 1751c135.333 82.667 270.334 114.333 405.001 95c9.33301 28 25.666 95.333 48.999 202c-103.333 -1.33301 -214.333 -24 -333 -68c-238.667 -88 -396.667 -238.333 -474 -451c14 142.667 25.667 315.667 35 519h-242c24.667 -287.333 41.334 -588 50.001 -902
c16.667 -628.667 -16 -1010.67 -98 -1146c60 1.33301 142.667 1.33301 248 0l-1 1376c374.667 -94 621 -272.333 739 -535c109.333 -242 98.333 -522.333 -33 -841c31.333 0.666992 84.666 1.66699 159.999 3c59.333 1.33301 100.333 2 123 2c50.667 468 -24 830 -224 1086
c-141.333 182 -364 323.667 -668 425c81.333 98 169.333 176.333 264 235z" />
    <glyph glyph-name="L" unicode="L" horiz-adv-x="726" 
d="M105 2048c67.333 -148 125 -344.333 173 -589c95.333 -488.667 93.333 -975 -6 -1459h238v2048h-405z" />
    <glyph glyph-name="M" unicode="M" horiz-adv-x="2002" 
d="M0 2048c34 -159.333 64.3311 -364.329 90.998 -614.996c54 -500.667 63 -978.334 27 -1433h226v1024c-5.33301 135.333 5.33398 270.666 32.001 405.999c54 272 162.333 410.333 325 415c90.667 2.66699 160 -86 208 -266c41.333 -154 62.666 -355.333 63.999 -604
c1.33301 -228 -13.334 -438 -44.001 -630c-31.333 -198 -70.333 -313 -117 -345h371c-39.333 307.333 -56.666 614.666 -51.999 921.999c9.33301 615.333 124.666 923 345.999 923s300.333 -307.667 237 -923c-32 -307.333 -86 -614.666 -162 -921.999h320
c36.667 341.333 48.334 682.666 35.001 1024c-26.667 682.667 -165.667 1024 -417 1024c-161.333 0 -279.666 -63.333 -354.999 -190c-38 -62.667 -59.667 -125.667 -65 -189c1.33301 63.333 -14 126.333 -46 189c-63.333 126.667 -177.666 190 -342.999 190
c-85.333 0 -169 -52.667 -251 -158c-26.667 -34.667 -50.667 -71.334 -72 -110.001c-18 -32.667 -26 -50.667 -24 -54l10 322h-344z" />
    <glyph glyph-name="N" unicode="N" horiz-adv-x="1481" 
d="M0 2048c48 -90.667 86.0029 -244.335 114.003 -461.002c57.333 -432 37.666 -961 -59.001 -1587h255c-7.33301 760 19.667 1215.33 81 1366c67.333 166 124 281.667 170 347c85.333 118.667 188 180.334 308 185.001c69.333 2.66699 129.666 -41.666 180.999 -132.999
c52 -94 86.667 -223.667 104 -389c42 -391.333 -17 -850 -177 -1376h274c67.333 341.333 102 682.666 104 1024c1.33301 298.667 -30.334 533.334 -95.001 704.001c-80.667 213.333 -211 320 -391 320c-160 0 -291.667 -62.333 -395 -187
c-52 -62.667 -87.667 -125 -107 -187l8 374h-375z" />
    <glyph glyph-name="O" unicode="O" horiz-adv-x="1314" 
d="M902 457c-52 -194 -123.331 -291.001 -213.998 -291.001c-110.667 0.666992 -205 96.334 -283 287.001c-74.667 182 -111.334 388.333 -110.001 619c1.33301 228.667 34.333 422.667 99 582c68 166.667 153.333 249.667 256 249c122 -0.666992 211.667 -72.667 269 -216
c53.333 -133.333 75.333 -320.333 66 -561c-10.667 -280.667 -38.334 -503.667 -83.001 -669zM134.002 1739c-84 -165.333 -125.666 -383.333 -124.999 -654c0.666992 -264 56 -502 166 -714c129.333 -247.333 300.333 -371 513 -371c201.333 0 347.666 143.667 438.999 431
c62 194 93 421 93 681c0 262.667 -12 436 -36 520c-78 276 -263.333 414.667 -556 416c-223.333 1.33301 -388 -101.667 -494 -309z" />
    <glyph glyph-name="P" unicode="P" horiz-adv-x="1347" 
d="M728 1045c-125.333 -64 -246 -96.001 -362 -96.001c-2 314 -1 556.667 3 728c50 106.667 128.333 177.667 235 213c96.667 32.667 194 30.667 292 -6c99.333 -37.333 167.666 -98.333 204.999 -183c42.667 -95.333 34.334 -200.666 -24.999 -315.999
c-74.667 -146 -190.667 -259.333 -348 -340zM308 1900v151.999l-291 -9c44.667 -99.333 80.667 -259 108 -479c54 -439.333 37.667 -959.333 -49 -1560h232l58 754c135.333 -3.33301 274.666 22.334 417.999 77.001c285.333 110 446.333 311.333 483 604
c22.667 183.333 -14.666 334 -111.999 452c-91.333 110.667 -208.333 164.334 -351 161.001c-174.667 -4.66699 -340 -55.334 -496 -152.001z" />
    <glyph glyph-name="Q" unicode="Q" horiz-adv-x="1491" 
d="M835 851l-102.001 -110.002l215 -323c-16.667 -41.333 -41 -82.666 -73 -123.999c-64 -82 -134.667 -123 -212 -123c-103.333 0 -186.666 66.667 -249.999 200c-72 150.667 -109 373.334 -111 668.001c-2 208.667 42 402.334 132 581.001
c96.667 190.667 210.667 286 342 286c110.667 0 198 -108.333 262 -325c50.667 -170.667 76 -351.334 76 -542.001c0 -220.667 -16 -386.667 -48 -498zM1305 1675c-93.333 253.333 -276.665 379.336 -549.998 378.003c-244.667 -1.33301 -435.334 -137 -572.001 -407
c-102.667 -203.333 -152 -406 -148 -608c4.66699 -248.667 35.667 -454.334 93 -617.001c96.667 -276.667 260.667 -415.334 492 -416.001c127.333 -0.666992 243.333 50.333 348 153c52 50.667 91.333 101.667 118 153c36.667 -82 85.667 -184 147 -306
c25.333 86 74.666 155.333 147.999 208l-207 194c34.667 18 69.334 59 104.001 123c69.333 126.667 103.666 304 102.999 532c-0.666992 273.333 -26 477.666 -76 612.999z" />
    <glyph glyph-name="R" unicode="R" horiz-adv-x="1524" 
d="M0 2048c39.333 -74 71.665 -215.001 96.998 -423.001c50 -415.333 39.333 -957 -32 -1625h304c-9.33301 860 -2.66602 1337.67 20.001 1433c42 172.667 87.333 289.334 136 350.001c72.667 92 188.334 132.667 347.001 122
c145.333 -9.33301 253.333 -73.666 324 -192.999c35.333 -59.333 56.333 -117.666 63 -174.999l188 216c-31.333 49.333 -79 98.666 -143 147.999c-128 98 -274 147 -438 147c-163.333 0 -304 -46.667 -422 -140c-59.333 -46.667 -102.333 -93.334 -129 -140.001
c-2 186.667 -4.66699 280 -8 280h-307z" />
    <glyph glyph-name="S" unicode="S" horiz-adv-x="1668" 
d="M1432 1807c-14.667 40 -46.3379 80.332 -95.0049 120.999c-96.667 80 -228 120 -394 120c-246.667 0 -432 -56.667 -556 -170c-82.667 -75.333 -124.667 -152.666 -126 -231.999c-1.33301 -93.333 53.334 -182.666 164.001 -267.999
c59.333 -46 181.333 -117.667 366 -215c174 -91.333 297 -168 369 -230c112 -96.667 168.667 -201.334 170 -314.001c1.33301 -121.333 -53.667 -227.666 -165 -318.999c-103.333 -85.333 -227 -136.666 -371 -153.999c-150 -18 -277 7.66699 -381 77
c-119.333 79.333 -184.666 204 -195.999 374c-6.66699 96.667 6 191.667 38 285l-250 -118c-8.66699 -133.333 16 -265 74 -395c116.667 -260.667 342 -383.334 676 -368.001c308.667 14 531.334 90.667 668.001 230c95.333 98 143.333 218.333 144 361
c0 200 -55.333 361.667 -166 485c-81.333 90 -203.666 167.333 -366.999 232c-36 14 -102 37.667 -198 71c-77.333 26.667 -135 49 -173 67c-113.333 52.667 -171.666 119 -174.999 199c-4.66699 112.667 54.333 189.667 177 231c76.667 25.333 158.667 34.666 246 27.999
c183.333 -14 298.333 -79.333 345 -196c23.333 -58.667 28.333 -116 15 -172z" />
    <glyph glyph-name="T" unicode="T" horiz-adv-x="1271" 
d="M199 331c37.333 -127.333 78.332 -211.997 122.999 -253.997c52 -48.667 138.333 -73 259 -73c136.667 0 266.334 75.667 389.001 227c132.667 163.333 200.334 354.666 203.001 573.999c-96.667 -18 -164.667 -32.333 -204 -43
c-6.66699 -110.667 -25.667 -220.667 -57 -330c-63.333 -218.667 -158.333 -325.667 -285 -321c-101.333 3.33301 -190 171.666 -266 504.999c-70.667 309.333 -103.334 620.666 -98.001 933.999c164.667 -14 346 -52.667 544 -116l54 216h-595
c12 213.333 47.333 347.333 106 402h-291c10 -76.667 23.333 -210.667 40 -402h-126c7.33301 -36 25.333 -72 54 -108c20 5.33301 43.333 9 70 11c37.333 -758 64 -1165.33 80 -1222z" />
    <glyph glyph-name="U" unicode="U" horiz-adv-x="1501" 
d="M0 2035c62 -105.333 97.6641 -361.335 106.997 -768.002c12.667 -522.667 20.334 -794 23.001 -814c20 -151.333 86.667 -269.333 200 -354c99.333 -74 207.333 -106.667 324 -98c99.333 8 202 69.667 308 185c94.667 104 183.334 240.333 266.001 409
c-37.333 -340.667 -60 -538 -68 -592h235l-11 2045l-262 -13c20.667 -56.667 39.334 -141.667 56.001 -255c33.333 -226 39.333 -480 18 -762c-11.333 -142.667 -70.666 -302.667 -177.999 -480c-126 -207.333 -259.667 -313.666 -401 -318.999
c-231.333 -9.33301 -354 274.667 -368 852c-4.66699 174.667 1.33301 382.334 18 623.001c15.333 223.333 22.666 337 21.999 341h-289z" />
    <glyph glyph-name="V" unicode="V" horiz-adv-x="1758" 
d="M0 2048c90.667 -130 188 -312.667 292 -548c208 -470.667 346 -970.667 414 -1500h211l754 2048h-244l-575 -1809l-467 1809h-385z" />
    <glyph glyph-name="W" unicode="W" horiz-adv-x="2427" 
d="M0 2048c231.333 -280 399.666 -962.665 504.999 -2048h173l511 1539c293.333 -920.667 432.666 -1433.67 417.999 -1539h184c54.667 341.333 120.667 682.666 198 1024c154.667 682.667 289.667 1024 405 1024h-424l-239 -1668
c-89.333 209.333 -170.666 425.333 -243.999 648c-148 445.333 -182.333 699.666 -103 762.999h-326c-195.333 -890.667 -343.666 -1411.67 -444.999 -1563l-298 1820h-315z" />
    <glyph glyph-name="X" unicode="X" horiz-adv-x="1429" 
d="M-12 2043c362.667 -428.667 588.999 -711.332 678.999 -847.999c10.667 -16 -54.333 -165.667 -195 -449c-159.333 -320 -310 -568.333 -452 -745c4 -6.66699 59.333 -6.66699 166 0c106 6.66699 161 6.66699 165 0c4 -8 79.667 177.667 227 557s223 565.333 227 558
c179.333 -324.667 277 -696.334 293 -1115h211c-29.333 170 -68.333 347 -117 531c-97.333 368 -195.666 586 -294.999 654c119.333 202 269.333 487.667 450 857h-320c-122.667 -438 -200 -684 -232 -738c-76 137.333 -244 383.333 -504 738h-303z" />
    <glyph glyph-name="Y" unicode="Y" horiz-adv-x="1324" 
d="M0 2048c60.667 -195.333 95.334 -412.999 104.001 -652.999c2.66699 -71.333 3.33398 -165.333 2.00098 -282c-1.33301 -118.667 -1.33301 -200.667 0 -246c5.33301 -168 35.666 -289 90.999 -363c69.333 -92 194.333 -145 375 -159
c180.667 2.66699 311.334 72.667 392.001 210c40.667 68 63 136.333 67 205c14 -100.667 8.33301 -201 -17 -301c-50 -199.333 -172.333 -297.333 -367 -294c-144 2.66699 -250.667 36.667 -320 102c-34.667 32 -55 64 -61 96l-228 -238
c177.333 -83.333 372.666 -125 585.999 -125c146.667 0 260 25 340 75c60 38 111.333 99.333 154 184c108.667 217.333 128.667 813.666 60 1789h-277c50 -108 89 -239 117 -393c57.333 -308 32.666 -577.333 -74.001 -808c-108 -236 -221 -346.333 -339 -331
c-206 27.333 -328 291 -366 791c-18.667 249.333 -17 496.333 5 741h-244z" />
    <glyph glyph-name="Z" unicode="Z" horiz-adv-x="1424" 
d="M6 144v-146.999l1297 -21c-0.666992 89.333 -0.666992 188.666 0 297.999c-141.333 -79.333 -506.666 -113.333 -1096 -102l431 680c70 14.667 132 5 186 -29c27.333 -16.667 47.666 -35 60.999 -55c28.667 61.333 57.667 137.666 87 228.999
c-71.333 -11.333 -157 -14 -257 -8l645 1035h-1252v-322c50 34 128 67.667 234 101c212.667 66.667 461.667 98.334 747 95.001c-18 -40 -103 -160 -255 -360c-162.667 -213.333 -280.667 -388 -354 -524c-102 15.333 -191.333 33 -268 53v-109
c46.667 8.66699 121 -0.333008 223 -27z" />
    <glyph glyph-name="bracketleft" unicode="[" horiz-adv-x="758" 
 />
    <glyph glyph-name="backslash" unicode="\" horiz-adv-x="569" 
 />
    <glyph glyph-name="bracketright" unicode="]" horiz-adv-x="758" 
 />
    <glyph glyph-name="asciicircum" unicode="^" 
 />
    <glyph glyph-name="grave" unicode="`" horiz-adv-x="1199" 
d="M803 1583c-51.333 -54.667 -72.665 -101.667 -63.998 -141c-73.333 61.333 -147 156.333 -221 285c-82 142 -114.667 247 -98 315c15.333 -16 46.666 -50.667 93.999 -104c36.667 -42 68 -75.333 94 -100c77.333 -74.667 168.666 -136.667 273.999 -186
c-26.667 -19.333 -53 -42.333 -79 -69z" />
    <glyph glyph-name="a" unicode="a" horiz-adv-x="1606" 
d="M293 304c-84 101.333 -126 234.666 -126 399.999c0 162 52.333 295.667 157 401c104.667 104.667 237 157 397 157c210 0 350.333 -57 421 -171c46 -74.667 69 -203.667 69 -387c0 -157.333 -58.333 -291.333 -175 -402c-113.333 -107.333 -245 -159.666 -395 -156.999
c-146 3.33301 -262 56.333 -348 159zM1492 13c-24 263.333 -35.6641 537 -34.9971 821c0 24.667 7.66699 140 23 346c11.333 162 11.666 273.333 0.999023 334c-27.333 146.667 -84 257 -170 331c-118 101.333 -309 161.333 -573 180
c-242 17.333 -431.333 -38.667 -568 -168c-68.667 -64.667 -113 -131 -133 -199l193 -262c-14.667 87.333 -4.33398 175.666 30.999 264.999c71.333 178.667 232.333 274.334 483 287.001c251.333 12.667 411.333 -101.666 480 -342.999
c34.667 -120.667 44 -242.667 28 -366c-10 44.667 -37.667 89.334 -83 134.001c-89.333 89.333 -220.333 134 -393 134c-306 0 -521.667 -101.333 -647 -304c-81.333 -130.667 -121.333 -297 -120 -499c1.33301 -182.667 43.333 -338 126 -466
c115.333 -180.667 297.333 -271.334 546 -272.001c209.333 -0.666992 367.333 74.333 474 225c53.333 75.333 85.666 150.666 96.999 225.999l-16 -413z" />
    <glyph glyph-name="b" unicode="b" horiz-adv-x="1400" 
d="M283 835c9.33301 95.333 35.667 191 79 287c85.333 192.667 213 289 383 289c100 0 180 -70 240 -210c49.333 -116 75.666 -251.333 78.999 -406c4 -189.333 -10 -326.666 -42 -411.999c-51.333 -136.667 -156.333 -211.334 -315 -224.001
c-307.333 -23.333 -448.666 202 -423.999 676zM1122 1394c-95.333 94 -216.332 140.999 -362.999 140.999c-113.333 0 -226 -33.667 -338 -101c-56.667 -33.333 -101.667 -66.666 -135 -99.999l24 723l-307 -4c99.333 -526.667 133 -929.667 101 -1209l-96 -835h166v272
c10 -45.333 37.333 -90.666 82 -135.999c89.333 -90.667 221.666 -136 396.999 -136c464.667 0 679.667 309.333 645 928c-11.333 199.333 -70 351.666 -176 456.999z" />
    <glyph glyph-name="c" unicode="c" horiz-adv-x="1324" 
d="M1176 1758c-32.667 58.667 -79.9971 114.664 -141.997 167.997c-124.667 106 -261.667 145.667 -411 119c-241.333 -43.333 -406.333 -163.333 -495 -360c-66.667 -148 -96.667 -367.333 -90 -658c7.33301 -278 52.666 -505 135.999 -681
c110.667 -233.333 280 -347 508 -341c201.333 5.33301 353.666 77 456.999 215c52 68.667 83.667 137 95 205l-240 210c14.667 -71.333 12.667 -142.666 -6 -213.999c-38 -142.667 -140 -214 -306 -214c-144.667 0 -245.667 95.333 -303 286
c-29.333 98.667 -53.333 277.667 -72 537c-14.667 210.667 9 408.334 71 593.001c75.333 224.667 186.666 324.334 333.999 299.001c140 -24 229.667 -107.333 269 -250c19.333 -71.333 24.333 -140 15 -206z" />
    <glyph glyph-name="d" unicode="d" horiz-adv-x="1500" 
d="M784 378c-63.333 -156.667 -148 -232.667 -254 -228c-75.333 2.66699 -132 68.334 -170 197.001c-34 114.667 -47.667 255.334 -41 422.001c7.33301 164.667 32 305.667 74 423c46 129.333 103 196.333 171 201c104 7.33301 184 -63.334 240 -212.001
c46 -120.667 66.333 -252.334 61 -395.001c-6 -151.333 -33 -287.333 -81 -408zM998 2044l4.99902 -696.002c-17.333 30 -47.666 59.667 -90.999 89c-86.667 59.333 -196.334 89 -329.001 89c-168.667 0 -295 -44.333 -379 -133c-94 -98 -147.333 -260 -160 -486
c-14 -254.667 19.333 -466 100 -634c87.333 -182 213.333 -272.667 378 -272c142.667 0 258.667 77 348 231c44.667 76.667 75 153.334 91 230.001l-36 -461c130 -8 222 -8 276 0c-109.333 670.667 -105.666 1212.33 11.001 1625c58.667 206 128 345.333 208 418h-422z" />
    <glyph glyph-name="e" unicode="e" horiz-adv-x="1352" 
d="M1004 1548c0 -222.667 -97.999 -347.668 -293.999 -375.001c-170 -24 -323.333 -25.333 -460 -4c10 128 37.667 256 83 384c90.667 256.667 225 385.334 403 386.001c179.333 1.33301 268.666 -129 267.999 -391zM314.001 403.999
c-28.667 110 -49.9971 315.667 -63.9971 617c297.333 -0.666992 505.666 17.666 624.999 54.999c249.333 76.667 374 241.334 374 494.001c0 130 -40.333 238.667 -121 326c-92.667 101.333 -224.334 152 -395.001 152c-190.667 0 -355.667 -91.667 -495 -275
c-147.333 -194 -225.333 -443 -234 -747c-8.66699 -314.667 45.333 -566.334 162 -755.001c115.333 -186 268.666 -276.333 459.999 -271c158 4.66699 309.333 101.667 454 291c72 94 128.333 188 169 282l-272 131c-0.666992 -89.333 -15.667 -181 -45 -275
c-59.333 -187.333 -161.333 -290.666 -306 -309.999c-152 -20.667 -256 74.333 -312 285z" />
    <glyph glyph-name="f" unicode="f" horiz-adv-x="1218" 
d="M5 1250h201c46.667 538.667 214.334 808 503.001 808c136 0 250 -53.667 342 -161c45.333 -54 77.333 -108 96 -162l-272 -195c-2 94 -19.333 178.333 -52 253c-64.667 150 -173.667 178 -327 84c-94 -57.333 -144.667 -266.333 -152 -627h331l52 -272l-405 146
c42 -342 131.333 -712.333 268 -1111c-124.667 -4 -244 -4 -358 0c-1.33301 40 -5 108.333 -11 205c-8.66699 129.333 -14.334 220.666 -17.001 273.999c-13.333 252.667 -15.333 468 -6 646c-90 12.667 -154.333 18.334 -193 17.001c2 20 2 51.667 0 95z" />
    <glyph glyph-name="g" unicode="g" horiz-adv-x="1328" 
d="M904 865c-65.333 -62 -131.333 -86.334 -198 -73.001c-94 18.667 -170 64 -228 136c-82 101.333 -118.333 246.333 -109 435c10.667 218 48.667 373 114 465c69.333 96.667 180.333 141.334 333 134.001c154.667 -8 248 -127.667 280 -359c26 -190 12.667 -355 -40 -495
c-39.333 -104 -90 -185 -152 -243zM314 1822c-110.667 -142 -166.001 -324.004 -166.001 -546.004c-0.666992 -182 63.666 -331.333 192.999 -448c114.667 -103.333 250 -158.666 406 -165.999c117.333 -6 212.333 43 285 147c36 52 60.333 104.667 73 158
c-2.66699 -139.333 -22 -278.666 -58 -417.999c-72 -280 -192.667 -421.333 -362 -424s-299 102 -389 314c-45.333 106.667 -73.666 213.334 -84.999 320.001l-200 -173c42.667 -97.333 103.334 -194.333 182.001 -291c158.667 -194 329.667 -291 513 -291
c203.333 0 345.666 100 426.999 300c64.667 158 99 408 103 750c4 392 -3.33301 629.333 -22 712c-20.667 89.333 -56.667 156.333 -108 201c-55.333 48.667 -133.666 76.334 -234.999 83.001c-242 15.333 -427.667 -60.667 -557 -228z" />
    <glyph glyph-name="h" unicode="h" horiz-adv-x="1500" 
d="M16 2053c39.333 -244 73.668 -512.333 103.001 -805c58 -585.333 62.667 -999 14 -1241h166c-21.333 276.667 -21.333 512.334 0 707.001s65 350.334 131 467.001c87.333 154.667 210.333 233.667 369 237c85.333 1.33301 165 -46 239 -142
c69.333 -90.667 124 -210.667 164 -360c91.333 -340.667 79.666 -644.334 -35.001 -911.001c50.667 0 131.334 0.666992 242.001 2c26.667 254.667 20.667 509 -18 763c-34 223.333 -93.667 398.666 -179 525.999c-106.667 158.667 -250.334 238 -431.001 238
c-138 0 -258.667 -48.333 -362 -145c-51.333 -48 -89 -96.333 -113 -145l34 809h-324z" />
    <glyph glyph-name="i" unicode="i" horiz-adv-x="698" 
d="M243 1139c58 -390 55.334 -769.667 -7.99902 -1139h253c-31.333 258 -53.333 518.667 -66 782c-24.667 526.667 9.66602 803.667 102.999 831c-104 -19.333 -233 -19.333 -387 0c41.333 -121.333 76.333 -279.333 105 -474zM445.001 2013c26.667 -23.333 39 -53 37 -89
c-2 -34.667 -17.667 -65.667 -47 -93c-31.333 -28.667 -71.333 -45.334 -120 -50.001c-49.333 -4 -89.333 7.66699 -120 35c-28.667 24.667 -44 56 -46 94c-2 38.667 10.667 71.334 38 98.001c30 30 72.667 45 128 45c56 0 99.333 -13.333 130 -40z" />
    <glyph glyph-name="j" unicode="j" horiz-adv-x="1152" 
d="M972 2057c46.667 -341.333 69.333 -682.335 68 -1023c-2 -682.667 -121.333 -1024.33 -358 -1025c-368.667 -1.33301 -589.334 170.334 -662.001 515.001c87.333 -9.33301 184 -5 290 13c6 -60 25.667 -120.333 59 -181c65.333 -121.333 164.333 -183.666 297 -186.999
c74.667 -1.33301 123.334 85.667 146.001 261c20.667 156.667 18.667 356 -6 598c-24 234.667 -62.667 448 -116 640c-58 206.667 -119 336.334 -183 389.001h465z" />
    <glyph glyph-name="k" unicode="k" horiz-adv-x="1352" 
d="M613 1746c135.333 82.667 270.334 114.333 405.001 95c9.33301 28 25.666 95.333 48.999 202c-103.333 -1.33301 -214.333 -24 -333 -68c-238.667 -88 -396.667 -238.333 -474 -451c14 142.667 25.667 315.667 35 519h-242c24.667 -287.333 41.334 -588 50.001 -902
c16.667 -628.667 -16 -1010.67 -98 -1146c60 1.33301 142.667 1.33301 248 0l-1 1376c374.667 -94 621 -272.333 739 -535c109.333 -242 98.333 -522.333 -33 -841c31.333 0.666992 84.666 1.66699 159.999 3c59.333 1.33301 100.333 2 123 2c50.667 468 -24 830 -224 1086
c-141.333 182 -364 323.667 -668 425c81.333 98 169.333 176.333 264 235z" />
    <glyph glyph-name="l" unicode="l" horiz-adv-x="693" 
d="M134 2053c67.333 -148 125 -344.333 173 -589c95.333 -488.667 93.333 -975 -6 -1459h238v2048h-405z" />
    <glyph glyph-name="m" unicode="m" horiz-adv-x="2026" 
d="M0 2048c34 -159.333 64.3311 -364.329 90.998 -614.996c54 -500.667 63 -978.334 27 -1433h226v1024c-5.33301 135.333 5.33398 270.666 32.001 405.999c54 272 162.333 410.333 325 415c90.667 2.66699 160 -86 208 -266c41.333 -154 62.666 -355.333 63.999 -604
c1.33301 -228 -13.334 -438 -44.001 -630c-31.333 -198 -70.333 -313 -117 -345h371c-39.333 307.333 -56.666 614.666 -51.999 921.999c9.33301 615.333 124.666 923 345.999 923s300.333 -307.667 237 -923c-32 -307.333 -86 -614.666 -162 -921.999h320
c36.667 341.333 48.334 682.666 35.001 1024c-26.667 682.667 -165.667 1024 -417 1024c-161.333 0 -279.666 -63.333 -354.999 -190c-38 -62.667 -59.667 -125.667 -65 -189c1.33301 63.333 -14 126.333 -46 189c-63.333 126.667 -177.666 190 -342.999 190
c-85.333 0 -169 -52.667 -251 -158c-26.667 -34.667 -50.667 -71.334 -72 -110.001c-18 -32.667 -26 -50.667 -24 -54l10 322h-344z" />
    <glyph glyph-name="n" unicode="n" horiz-adv-x="1472" 
d="M0 2048c48 -90.667 86.0029 -244.335 114.003 -461.002c57.333 -432 37.666 -961 -59.001 -1587h255c-7.33301 760 19.667 1215.33 81 1366c67.333 166 124 281.667 170 347c85.333 118.667 188 180.334 308 185.001c69.333 2.66699 129.666 -41.666 180.999 -132.999
c52 -94 86.667 -223.667 104 -389c42 -391.333 -17 -850 -177 -1376h274c67.333 341.333 102 682.666 104 1024c1.33301 298.667 -30.334 533.334 -95.001 704.001c-80.667 213.333 -211 320 -391 320c-160 0 -291.667 -62.333 -395 -187
c-52 -62.667 -87.667 -125 -107 -187l8 374h-375z" />
    <glyph glyph-name="o" unicode="o" horiz-adv-x="1328" 
d="M906 457c-52 -194 -123.331 -291.001 -213.998 -291.001c-110.667 0.666992 -205 96.334 -283 287.001c-74.667 182 -111.334 388.333 -110.001 619c1.33301 228.667 34.333 422.667 99 582c68 166.667 153.333 249.667 256 249c122 -0.666992 211.667 -72.667 269 -216
c53.333 -133.333 75.333 -320.333 66 -561c-10.667 -280.667 -38.334 -503.667 -83.001 -669zM138.002 1739c-84 -165.333 -125.666 -383.333 -124.999 -654c0.666992 -264 56 -502 166 -714c129.333 -247.333 300.333 -371 513 -371c201.333 0 347.666 143.667 438.999 431
c62 194 93 421 93 681c0 262.667 -12 436 -36 520c-78 276 -263.333 414.667 -556 416c-223.333 1.33301 -388 -101.667 -494 -309z" />
    <glyph glyph-name="p" unicode="p" horiz-adv-x="1324" 
d="M708 1041c-125.333 -64 -246 -96.001 -362 -96.001c-2 314 -1 556.667 3 728c50 106.667 128.333 177.667 235 213c96.667 32.667 194 30.667 292 -6c99.333 -37.333 167.666 -98.333 204.999 -183c42.667 -95.333 34.334 -200.666 -24.999 -315.999
c-74.667 -146 -190.667 -259.333 -348 -340zM288 1896v151.999l-291 -9c44.667 -99.333 80.667 -259 108 -479c54 -439.333 37.667 -959.333 -49 -1560h232l58 754c135.333 -3.33301 274.666 22.334 417.999 77.001c285.333 110 446.333 311.333 483 604
c22.667 183.333 -14.666 334 -111.999 452c-91.333 110.667 -208.333 164.334 -351 161.001c-174.667 -4.66699 -340 -55.334 -496 -152.001z" />
    <glyph glyph-name="q" unicode="q" horiz-adv-x="1453" 
d="M806 846l-102.001 -110.002l215 -323c-16.667 -41.333 -41 -82.666 -73 -123.999c-64 -82 -134.667 -123 -212 -123c-103.333 0 -186.666 66.667 -249.999 200c-72 150.667 -109 373.334 -111 668.001c-2 208.667 42 402.334 132 581.001
c96.667 190.667 210.667 286 342 286c110.667 0 198 -108.333 262 -325c50.667 -170.667 76 -351.334 76 -542.001c0 -220.667 -16 -386.667 -48 -498zM1276 1670c-93.333 253.333 -276.665 379.336 -549.998 378.003c-244.667 -1.33301 -435.334 -137 -572.001 -407
c-102.667 -203.333 -152 -406 -148 -608c4.66699 -248.667 35.667 -454.334 93 -617.001c96.667 -276.667 260.667 -415.334 492 -416.001c127.333 -0.666992 243.333 50.333 348 153c52 50.667 91.333 101.667 118 153c36.667 -82 85.667 -184 147 -306
c25.333 86 74.666 155.333 147.999 208l-207 194c34.667 18 69.334 59 104.001 123c69.333 126.667 103.666 304 102.999 532c-0.666992 273.333 -26 477.666 -76 612.999z" />
    <glyph glyph-name="r" unicode="r" horiz-adv-x="1515" 
d="M0 2048c39.333 -74 71.665 -215.001 96.998 -423.001c50 -415.333 39.333 -957 -32 -1625h304c-9.33301 860 -2.66602 1337.67 20.001 1433c42 172.667 87.333 289.334 136 350.001c72.667 92 188.334 132.667 347.001 122
c145.333 -9.33301 253.333 -73.666 324 -192.999c35.333 -59.333 56.333 -117.666 63 -174.999l188 216c-31.333 49.333 -79 98.666 -143 147.999c-128 98 -274 147 -438 147c-163.333 0 -304 -46.667 -422 -140c-59.333 -46.667 -102.333 -93.334 -129 -140.001
c-2 186.667 -4.66699 280 -8 280h-307z" />
    <glyph glyph-name="s" unicode="s" horiz-adv-x="1649" 
d="M1432 1821c-14.667 40 -46.3379 80.332 -95.0049 120.999c-96.667 80 -228 120 -394 120c-246.667 0 -432 -56.667 -556 -170c-82.667 -75.333 -124.667 -152.666 -126 -231.999c-1.33301 -93.333 53.334 -182.666 164.001 -267.999
c59.333 -46 181.333 -117.667 366 -215c174 -91.333 297 -168 369 -230c112 -96.667 168.667 -201.334 170 -314.001c1.33301 -121.333 -53.667 -227.666 -165 -318.999c-103.333 -85.333 -227 -136.666 -371 -153.999c-150 -18 -277 7.66699 -381 77
c-119.333 79.333 -184.666 204 -195.999 374c-6.66699 96.667 6 191.667 38 285l-250 -118c-8.66699 -133.333 16 -265 74 -395c116.667 -260.667 342 -383.334 676 -368.001c308.667 14 531.334 90.667 668.001 230c95.333 98 143.333 218.333 144 361
c0 200 -55.333 361.667 -166 485c-81.333 90 -203.666 167.333 -366.999 232c-36 14 -102 37.667 -198 71c-77.333 26.667 -135 49 -173 67c-113.333 52.667 -171.666 119 -174.999 199c-4.66699 112.667 54.333 189.667 177 231c76.667 25.333 158.667 34.666 246 27.999
c183.333 -14 298.333 -79.333 345 -196c23.333 -58.667 28.333 -116 15 -172z" />
    <glyph glyph-name="t" unicode="t" horiz-adv-x="1271" 
d="M190 331c37.333 -127.333 78.332 -211.997 122.999 -253.997c52 -48.667 138.333 -73 259 -73c136.667 0 266.334 75.667 389.001 227c132.667 163.333 200.334 354.666 203.001 573.999c-96.667 -18 -164.667 -32.333 -204 -43
c-6.66699 -110.667 -25.667 -220.667 -57 -330c-63.333 -218.667 -158.333 -325.667 -285 -321c-101.333 3.33301 -190 171.666 -266 504.999c-70.667 309.333 -103.334 620.666 -98.001 933.999c164.667 -14 346 -52.667 544 -116l54 216h-595
c12 213.333 47.333 347.333 106 402h-291c10 -76.667 23.333 -210.667 40 -402h-126c7.33301 -36 25.333 -72 54 -108c20 5.33301 43.333 9 70 11c37.333 -758 64 -1165.33 80 -1222z" />
    <glyph glyph-name="u" unicode="u" horiz-adv-x="1510" 
d="M0 2035c62 -105.333 97.6641 -361.335 106.997 -768.002c12.667 -522.667 20.334 -794 23.001 -814c20 -151.333 86.667 -269.333 200 -354c99.333 -74 207.333 -106.667 324 -98c99.333 8 202 69.667 308 185c94.667 104 183.334 240.333 266.001 409
c-37.333 -340.667 -60 -538 -68 -592h235l-11 2045l-262 -13c20.667 -56.667 39.334 -141.667 56.001 -255c33.333 -226 39.333 -480 18 -762c-11.333 -142.667 -70.666 -302.667 -177.999 -480c-126 -207.333 -259.667 -313.666 -401 -318.999
c-231.333 -9.33301 -354 274.667 -368 852c-4.66699 174.667 1.33301 382.334 18 623.001c15.333 223.333 22.666 337 21.999 341h-289z" />
    <glyph glyph-name="v" unicode="v" horiz-adv-x="1754" 
d="M0 2048c90.667 -130 188 -312.667 292 -548c208 -470.667 346 -970.667 414 -1500h211l754 2048h-244l-575 -1809l-467 1809h-385z" />
    <glyph glyph-name="w" unicode="w" horiz-adv-x="2442" 
d="M0 2048c231.333 -280 399.666 -962.665 504.999 -2048h173l511 1539c293.333 -920.667 432.666 -1433.67 417.999 -1539h184c54.667 341.333 120.667 682.666 198 1024c154.667 682.667 289.667 1024 405 1024h-424l-239 -1668
c-89.333 209.333 -170.666 425.333 -243.999 648c-148 445.333 -182.333 699.666 -103 762.999h-326c-195.333 -890.667 -343.666 -1411.67 -444.999 -1563l-298 1820h-315z" />
    <glyph glyph-name="x" unicode="x" horiz-adv-x="1395" 
d="M-12 2043c362.667 -428.667 588.999 -711.332 678.999 -847.999c10.667 -16 -54.333 -165.667 -195 -449c-159.333 -320 -310 -568.333 -452 -745c4 -6.66699 59.333 -6.66699 166 0c106 6.66699 161 6.66699 165 0c4 -8 79.667 177.667 227 557s223 565.333 227 558
c179.333 -324.667 277 -696.334 293 -1115h211c-29.333 170 -68.333 347 -117 531c-97.333 368 -195.666 586 -294.999 654c119.333 202 269.333 487.667 450 857h-320c-122.667 -438 -200 -684 -232 -738c-76 137.333 -244 383.333 -504 738h-303z" />
    <glyph glyph-name="y" unicode="y" horiz-adv-x="1319" 
d="M0 2048c60.667 -195.333 95.334 -412.999 104.001 -652.999c2.66699 -71.333 3.33398 -165.333 2.00098 -282c-1.33301 -118.667 -1.33301 -200.667 0 -246c5.33301 -168 35.666 -289 90.999 -363c69.333 -92 194.333 -145 375 -159
c180.667 2.66699 311.334 72.667 392.001 210c40.667 68 63 136.333 67 205c14 -100.667 8.33301 -201 -17 -301c-50 -199.333 -172.333 -297.333 -367 -294c-144 2.66699 -250.667 36.667 -320 102c-34.667 32 -55 64 -61 96l-228 -238
c177.333 -83.333 372.666 -125 585.999 -125c146.667 0 260 25 340 75c60 38 111.333 99.333 154 184c108.667 217.333 128.667 813.666 60 1789h-277c50 -108 89 -239 117 -393c57.333 -308 32.666 -577.333 -74.001 -808c-108 -236 -221 -346.333 -339 -331
c-206 27.333 -328 291 -366 791c-18.667 249.333 -17 496.333 5 741h-244z" />
    <glyph glyph-name="z" unicode="z" horiz-adv-x="1438" 
d="M10 163v-146.999l1297 -21c-0.666992 89.333 -0.666992 188.666 0 297.999c-141.333 -79.333 -506.666 -113.333 -1096 -102l431 680c70 14.667 132 5 186 -29c27.333 -16.667 47.666 -35 60.999 -55c28.667 61.333 57.667 137.666 87 228.999
c-71.333 -11.333 -157 -14 -257 -8l645 1035h-1252v-322c50 34 128 67.667 234 101c212.667 66.667 461.667 98.334 747 95.001c-18 -40 -103 -160 -255 -360c-162.667 -213.333 -280.667 -388 -354 -524c-102 15.333 -191.333 33 -268 53v-109
c46.667 8.66699 121 -0.333008 223 -27z" />
    <glyph glyph-name="braceleft" unicode="{" 
d="M146 872c50.667 25.333 99.3359 35.6631 146.003 30.9961c94.667 -9.33301 134 -88.666 118 -237.999c-32.667 -304.667 -46.334 -489 -41.001 -553c15.333 -155.333 92 -231.666 230 -228.999c87.333 2 182.666 35.667 285.999 101l-80 149
c-16.667 -45.333 -40.334 -82 -71.001 -110c-61.333 -56 -126.333 -40 -195 48c-68 88.667 -98.667 184.667 -92 288c2.66699 52 23.667 136 63 252c32 94.667 42 165 30 211c-18 68.667 -82.667 125 -194 169c75.333 50 125.333 125 150 225c16 64.667 23 159.667 21 285
c-1.33301 131.333 2 219.333 10 264c16.667 83.333 56 138.333 118 165c64 27.333 97.667 -3.66699 101 -93c0.666992 -29.333 -1.33301 -55.666 -6 -78.999c-2.66699 -8.66699 -4.66699 -13 -6 -13c-2 -0.666992 -2.66699 4.33301 -2 15l153 170
c-11.333 19.333 -30 39 -56 59c-52 39.333 -115.333 59 -190 59c-56 0 -98 -11.333 -126 -34c-30 -23.333 -53 -65.666 -69 -126.999c-15.333 -58.667 -42 -293 -80 -703c-8 -80 -46.667 -131 -116 -153c-34.667 -11.333 -68.667 -14.333 -102 -9v-150z" />
    <glyph glyph-name="braceright" unicode="}" 
d="M902 1010c-35.333 -6 -70.999 -2.99902 -106.999 9.00098c-73.333 22 -114.333 73.333 -123 154c-40 412 -68 647.667 -84 707c-16.667 62 -40.667 104.667 -72 128c-29.333 22.667 -73.666 34 -132.999 34c-78.667 0 -145.334 -20 -200.001 -60
c-27.333 -19.333 -47 -39 -59 -59l161 -171c0.666992 -10.667 0 -15.667 -2 -15c-2 0 -4 4.66699 -6 14c-5.33301 23.333 -7.33301 49.333 -6 78c2.66699 90 37.667 121.333 105 94c66 -26.667 107.333 -82 124 -166c9.33301 -44.667 13 -133.334 11 -266.001
c-1.33301 -126 6.33398 -221.333 23.001 -286c25.333 -100 78 -175.333 158 -226c-117.333 -44.667 -185.666 -101.334 -204.999 -170.001c-12.667 -46.667 -2 -117.667 32 -213c41.333 -116.667 63.333 -201 66 -253c7.33301 -104 -25 -200.667 -97 -290
c-72 -88.667 -140.333 -104.667 -205 -48c-32 28 -57 65 -75 111l-84 -150c109.333 -66 209.666 -100 300.999 -102c145.333 -2.66699 226 74.333 242 231c6 64 -8.33301 249.333 -43 556c-16.667 150 24.666 229.667 123.999 239
c49.333 4.66699 100.666 -5.66602 153.999 -30.999v151z" />
    <glyph glyph-name="asciitilde" unicode="~" horiz-adv-x="1295" 
d="M96 1701c18.667 32.667 43.334 67.001 74.001 103.001c62 72.667 124 118 186 136c70 20 131.667 15.667 185 -13c37.333 -19.333 79.333 -57.333 126 -114c58 -71.333 96.333 -115.333 115 -132c48 -42 100 -63 156 -63c106.667 -0.666992 181.667 23 225 71
c21.333 23.333 32 47 32 71v155c-12.667 -28 -40.667 -60.667 -84 -98c-62.667 -54 -122.667 -73.667 -180 -59c-58 15.333 -118 38 -180 68c-32.667 16.667 -82.667 44.667 -150 84c-58.667 34 -103.667 57.667 -135 71c-48 20.667 -92.667 32 -134 34
c-84.667 3.33301 -149.334 -17.334 -194.001 -62.001c-22.667 -22 -36.667 -44.333 -42 -67v-185z" />
    <glyph glyph-name="exclamdown" unicode="&#xa1;" horiz-adv-x="672" 
d="M191 1819c-26.667 24 -38.999 53.668 -36.999 89.001s17.333 66.333 46 93c31.333 29.333 71.666 46 120.999 50c48.667 4.66699 88.667 -7 120 -35c28.667 -24.667 43.667 -56 45 -94c2 -38.667 -10.333 -71.334 -37 -98.001c-30 -30 -72.667 -45 -128 -45
c-56.667 0 -100 13.333 -130 40zM420.001 481.001c-57.333 390 -54.334 769.667 8.99902 1139h-253c31.333 -258 53 -518.667 65 -782c24.667 -526.667 -9.33301 -803.667 -102 -831c104 19.333 233 19.333 387 0c-41.333 121.333 -76.666 279.333 -105.999 474z" />
    <glyph glyph-name="cent" unicode="&#xa2;" horiz-adv-x="1139" 
 />
    <glyph glyph-name="ordfeminine" unicode="&#xaa;" horiz-adv-x="648" 
 />
    <glyph glyph-name="macron" unicode="&#xaf;" horiz-adv-x="670" 
 />
    <glyph glyph-name="plusminus" unicode="&#xb1;" 
 />
    <glyph glyph-name="uni00B2" unicode="&#xb2;" 
 />
    <glyph glyph-name="uni00B3" unicode="&#xb3;" 
 />
    <glyph glyph-name="acute" unicode="&#xb4;" horiz-adv-x="1218" 
d="M667 2031c72.667 -11.333 122.665 -2.66797 149.998 25.999c-9.33301 -93.333 -45.666 -205.666 -108.999 -336.999c-69.333 -145.333 -136.333 -230 -201 -254c4.66699 21.333 15.334 65.666 32.001 132.999c14 53.333 23.667 97.333 29 132
c18 104.667 17.667 213.334 -1 326.001c30.667 -11.333 64 -20 100 -26z" />
    <glyph glyph-name="mu" unicode="&#xb5;" horiz-adv-x="1180" 
 />
    <glyph glyph-name="periodcentered" unicode="&#xb7;" horiz-adv-x="508" 
d="M387 775c27.333 -23.333 39.665 -53 36.998 -89c-2 -34.667 -17.333 -65.667 -46 -93c-31.333 -28.667 -71.666 -45.334 -120.999 -50.001c-48.667 -4 -88.667 7.66699 -120 35c-28 24.667 -43 56 -45 94c-2 38.667 10.333 71.334 37 98.001
c30.667 30 73.334 45 128.001 45c56.667 0 100 -13.333 130 -40z" />
    <glyph glyph-name="periodcentered" unicode="&#x2219;" horiz-adv-x="508" 
d="M387 775c27.333 -23.333 39.665 -53 36.998 -89c-2 -34.667 -17.333 -65.667 -46 -93c-31.333 -28.667 -71.666 -45.334 -120.999 -50.001c-48.667 -4 -88.667 7.66699 -120 35c-28 24.667 -43 56 -45 94c-2 38.667 10.333 71.334 37 98.001
c30.667 30 73.334 45 128.001 45c56.667 0 100 -13.333 130 -40z" />
    <glyph glyph-name="uni00B9" unicode="&#xb9;" 
 />
    <glyph glyph-name="ordmasculine" unicode="&#xba;" horiz-adv-x="718" 
 />
    <glyph glyph-name="onequarter" unicode="&#xbc;" horiz-adv-x="1708" 
 />
    <glyph glyph-name="onehalf" unicode="&#xbd;" horiz-adv-x="1964" 
 />
    <glyph glyph-name="threequarters" unicode="&#xbe;" horiz-adv-x="1708" 
 />
    <glyph glyph-name="questiondown" unicode="&#xbf;" horiz-adv-x="989" 
d="M296 1817c-26.667 24 -38.999 53.667 -36.999 89s17.333 66.333 46 93c31.333 29.333 71.666 46 120.999 50c48.667 4.66699 88.667 -6.66602 120 -33.999c28.667 -25.333 43.667 -57 45 -95c2 -38.667 -10.333 -71.334 -37 -98.001c-30 -30 -72.667 -45 -128 -45
c-56.667 0 -100 13.333 -130 40zM735.001 705c29.333 -106.667 33 -210.998 11 -312.998c-44 -204 -193 -293 -447 -267c-124.667 12.667 -196.667 88.667 -216 228c-16.667 119.333 5.66602 272.333 66.999 459c54.667 167.333 127.334 324.666 218.001 471.999
c90 147.333 168.667 236.666 236 267.999c-56 4.66699 -143.667 3.66699 -263 -3c-123.333 -230 -217.666 -466.333 -282.999 -709c-56.667 -212.667 -72.334 -386 -47.001 -520c32 -168 128 -269.667 288 -305c136.667 -30.667 272.667 -1.33398 408 87.999
c60.667 40.667 108.667 87.334 144 140.001c38 56 57 112.333 57 169z" />
    <glyph glyph-name="Agrave" unicode="&#xc0;" horiz-adv-x="1540" 
 />
    <glyph glyph-name="Aacute" unicode="&#xc1;" horiz-adv-x="1540" 
 />
    <glyph glyph-name="Acircumflex" unicode="&#xc2;" horiz-adv-x="1540" 
 />
    <glyph glyph-name="Atilde" unicode="&#xc3;" horiz-adv-x="1540" 
 />
    <glyph glyph-name="Adieresis" unicode="&#xc4;" horiz-adv-x="1540" 
 />
    <glyph glyph-name="Aring" unicode="&#xc5;" horiz-adv-x="1540" 
 />
    <glyph glyph-name="AE" unicode="&#xc6;" horiz-adv-x="2118" 
 />
    <glyph glyph-name="Ccedilla" unicode="&#xc7;" horiz-adv-x="1399" 
 />
    <glyph glyph-name="Egrave" unicode="&#xc8;" horiz-adv-x="1151" 
 />
    <glyph glyph-name="Eacute" unicode="&#xc9;" horiz-adv-x="1151" 
 />
    <glyph glyph-name="Ecircumflex" unicode="&#xca;" horiz-adv-x="1151" 
 />
    <glyph glyph-name="Edieresis" unicode="&#xcb;" horiz-adv-x="1151" 
 />
    <glyph glyph-name="Igrave" unicode="&#xcc;" horiz-adv-x="657" 
 />
    <glyph glyph-name="Iacute" unicode="&#xcd;" horiz-adv-x="657" 
 />
    <glyph glyph-name="Icircumflex" unicode="&#xce;" horiz-adv-x="657" 
 />
    <glyph glyph-name="Idieresis" unicode="&#xcf;" horiz-adv-x="657" 
 />
    <glyph glyph-name="Eth" unicode="&#xd0;" horiz-adv-x="1518" 
 />
    <glyph glyph-name="Ntilde" unicode="&#xd1;" horiz-adv-x="1554" 
 />
    <glyph glyph-name="Ograve" unicode="&#xd2;" horiz-adv-x="1614" 
 />
    <glyph glyph-name="Oacute" unicode="&#xd3;" horiz-adv-x="1614" 
 />
    <glyph glyph-name="Ocircumflex" unicode="&#xd4;" horiz-adv-x="1614" 
 />
    <glyph glyph-name="Otilde" unicode="&#xd5;" horiz-adv-x="1614" 
 />
    <glyph glyph-name="Odieresis" unicode="&#xd6;" horiz-adv-x="1614" 
 />
    <glyph glyph-name="multiply" unicode="&#xd7;" 
d="M507 618l-247 -247l-99 99l247 247l-247 248l99 98l247 -247l248 247l98 -99l-247 -247l247 -247l-99 -99z" />
    <glyph glyph-name="Oslash" unicode="&#xd8;" horiz-adv-x="1614" 
 />
    <glyph glyph-name="Ugrave" unicode="&#xd9;" horiz-adv-x="1501" 
 />
    <glyph glyph-name="Uacute" unicode="&#xda;" horiz-adv-x="1501" 
 />
    <glyph glyph-name="Ucircumflex" unicode="&#xdb;" horiz-adv-x="1501" 
 />
    <glyph glyph-name="Udieresis" unicode="&#xdc;" horiz-adv-x="1501" 
 />
    <glyph glyph-name="Yacute" unicode="&#xdd;" horiz-adv-x="1233" 
 />
    <glyph glyph-name="Thorn" unicode="&#xde;" horiz-adv-x="1120" 
 />
    <glyph glyph-name="germandbls" unicode="&#xdf;" horiz-adv-x="1251" 
 />
    <glyph glyph-name="agrave" unicode="&#xe0;" horiz-adv-x="922" 
 />
    <glyph glyph-name="aacute" unicode="&#xe1;" horiz-adv-x="922" 
 />
    <glyph glyph-name="acircumflex" unicode="&#xe2;" horiz-adv-x="922" 
 />
    <glyph glyph-name="atilde" unicode="&#xe3;" horiz-adv-x="922" 
 />
    <glyph glyph-name="adieresis" unicode="&#xe4;" horiz-adv-x="922" 
 />
    <glyph glyph-name="aring" unicode="&#xe5;" horiz-adv-x="922" 
 />
    <glyph glyph-name="ae" unicode="&#xe6;" horiz-adv-x="1454" 
 />
    <glyph glyph-name="ccedilla" unicode="&#xe7;" horiz-adv-x="905" 
 />
    <glyph glyph-name="egrave" unicode="&#xe8;" horiz-adv-x="909" 
 />
    <glyph glyph-name="eacute" unicode="&#xe9;" horiz-adv-x="909" 
 />
    <glyph glyph-name="ecircumflex" unicode="&#xea;" horiz-adv-x="909" 
 />
    <glyph glyph-name="edieresis" unicode="&#xeb;" horiz-adv-x="909" 
 />
    <glyph glyph-name="igrave" unicode="&#xec;" horiz-adv-x="514" 
 />
    <glyph glyph-name="iacute" unicode="&#xed;" horiz-adv-x="514" 
 />
    <glyph glyph-name="icircumflex" unicode="&#xee;" horiz-adv-x="514" 
 />
    <glyph glyph-name="idieresis" unicode="&#xef;" horiz-adv-x="514" 
 />
    <glyph glyph-name="eth" unicode="&#xf0;" horiz-adv-x="1139" 
 />
    <glyph glyph-name="ntilde" unicode="&#xf1;" horiz-adv-x="1108" 
 />
    <glyph glyph-name="ograve" unicode="&#xf2;" horiz-adv-x="1010" 
 />
    <glyph glyph-name="oacute" unicode="&#xf3;" horiz-adv-x="1010" 
 />
    <glyph glyph-name="ocircumflex" unicode="&#xf4;" horiz-adv-x="1010" 
 />
    <glyph glyph-name="otilde" unicode="&#xf5;" horiz-adv-x="1010" 
 />
    <glyph glyph-name="odieresis" unicode="&#xf6;" horiz-adv-x="1010" 
 />
    <glyph glyph-name="divide" unicode="&#xf7;" 
d="M87 647v140h839l1 -1v-139h-840zM398 408l82.001 84c10 9.33301 19.667 14 29 14c8.66699 0 19 -5.33301 31 -16l80 -86c8 -10.667 12 -20.334 12 -29.001c0 -10 -4.66699 -20.333 -14 -31l-80 -88c-13.333 -13.333 -23 -20 -29 -20
c-10.667 0 -20.334 4.66699 -29.001 14l-88 101c-6.66699 8.66699 -10 17.334 -10 26.001c0 10 5.33301 20.333 16 31zM398.001 1101l82.001 84c10 9.33301 19.667 14 29 14c8.66699 0 19 -5.33301 31 -16l80 -86c8 -10.667 12 -20.334 12 -29.001
c0 -10 -4.66699 -20.333 -14 -31l-80 -88c-13.333 -13.333 -23 -20 -29 -20c-10.667 0 -20.334 4.66699 -29.001 14l-88 101c-6.66699 8.66699 -10 17.334 -10 26.001c0 10 5.33301 20.333 16 31z" />
    <glyph glyph-name="oslash" unicode="&#xf8;" horiz-adv-x="1010" 
 />
    <glyph glyph-name="ugrave" unicode="&#xf9;" horiz-adv-x="1059" 
 />
    <glyph glyph-name="uacute" unicode="&#xfa;" horiz-adv-x="1059" 
 />
    <glyph glyph-name="ucircumflex" unicode="&#xfb;" horiz-adv-x="1059" 
 />
    <glyph glyph-name="udieresis" unicode="&#xfc;" horiz-adv-x="1059" 
 />
    <glyph glyph-name="yacute" unicode="&#xfd;" horiz-adv-x="868" 
 />
    <glyph glyph-name="thorn" unicode="&#xfe;" horiz-adv-x="1010" 
 />
    <glyph glyph-name="ydieresis" unicode="&#xff;" horiz-adv-x="868" 
 />
    <glyph glyph-name="dotlessi" unicode="&#x131;" horiz-adv-x="514" 
d="M328 223c0 -115.333 33.333 -173 100 -173h46v-50h-442v50h46c66.667 0 100 57.667 100 173v432c0 51.333 -37 77 -111 77h-48v44c148 46 235 106.667 261 182h48v-735z" />
    <glyph glyph-name="circumflex" unicode="&#x2c6;" horiz-adv-x="1024" 
d="M221 1079l232 355h118l232 -355h-58l-233 216l-233 -216h-58z" />
    <glyph glyph-name="caron" unicode="&#x2c7;" horiz-adv-x="1024" 
d="M221 1434h58l233 -214l233 214h58l-232 -356h-118z" />
    <glyph glyph-name="uni02C9" unicode="&#x2c9;" horiz-adv-x="1024" 
d="M254 1195v125h516v-125h-516z" />
    <glyph glyph-name="breve" unicode="&#x2d8;" horiz-adv-x="1024" 
d="M219 1349l50.998 0.00292969c11.333 -48.667 36.333 -84.334 75 -107.001s94.334 -34 167.001 -34s128 11.167 166 33.5s62.667 58.166 74 107.499h51c-13.333 -88.667 -44.666 -155.834 -93.999 -201.501s-115 -68.5 -197 -68.5c-81.333 0 -147 23 -197 69
s-82 113 -96 201z" />
    <glyph glyph-name="dotaccent" unicode="&#x2d9;" horiz-adv-x="1024" 
d="M422 1289l69 71.999c4 4 8.33301 7 13 9s9.33398 3 14.001 3c4 0 8.16699 -1 12.5 -3s8.5 -5 12.5 -9l71 -76c3.33301 -2.66699 5.66602 -6 6.99902 -10s2 -8.66699 2 -14c-0.666992 -6 -1.66699 -11 -3 -15s-4 -8 -8 -12l-71 -76c-8 -7.33301 -13.333 -11.833 -16 -13.5
s-5 -2.5 -7 -2.5c-6.66699 0 -12.167 0.833008 -16.5 2.5s-7.83301 4.5 -10.5 8.5l-75 87c-2.66699 2.66699 -4.66699 5.83398 -6 9.50098s-2 8.16699 -2 13.5c0 4 1 8.16699 3 12.5s5.66699 8.83301 11 13.5z" />
    <glyph glyph-name="ring" unicode="&#x2da;" horiz-adv-x="1024" 
d="M411 1257c0 -28 9.66699 -51.667 29 -71s43 -29 71 -29s51.667 9.66699 71 29s29 43 29 71c0 26.667 -9.83301 49.834 -29.5 69.501s-43.167 29.5 -70.5 29.5s-50.833 -9.83301 -70.5 -29.5s-29.5 -42.834 -29.5 -69.501zM335 1257c0 50 17 91.999 51 125.999
s75.667 51 125 51c50.667 0 93.167 -17.167 127.5 -51.5s51.5 -76.166 51.5 -125.499c0 -50 -17.167 -92.167 -51.5 -126.5s-76.833 -51.5 -127.5 -51.5c-49.333 0 -91 17.167 -125 51.5s-51 76.5 -51 126.5z" />
    <glyph glyph-name="ogonek" unicode="&#x2db;" horiz-adv-x="1024" 
d="M640 0c-47.333 -41.333 -84.168 -81.1699 -110.501 -119.503s-39.5 -75.833 -39.5 -112.5c0 -31.333 9 -56.333 27 -75s42.333 -28 73 -28c26.667 0 49.834 5.16699 69.501 15.5s36.167 26.5 49.5 48.5l28 -16c-24 -42 -54.167 -74.333 -90.5 -97
s-76.166 -34 -119.499 -34c-46.667 0 -84.667 11.833 -114 35.5s-44 53.834 -44 90.501c0 50.667 20.167 102.834 60.5 156.501s94.166 98.834 161.499 135.501h49z" />
    <glyph glyph-name="tilde" unicode="&#x2dc;" horiz-adv-x="1024" 
d="M808 1382c-13.333 -68.667 -36.1689 -120 -68.502 -154s-74.5 -51 -126.5 -51h-4c-33.333 0 -71 7.66699 -113 23c-44 16 -82 24 -114 24c-26 0 -46.167 -6.83301 -60.5 -20.5s-25.5 -37.5 -33.5 -71.5h-54c12.667 70.667 35.334 123.5 68.001 158.5
s75.667 52.5 129 52.5c30.667 -0.666992 68.334 -8.66699 113.001 -24c42.667 -15.333 80 -23 112 -23h4c24 0 43.333 6.66699 58 20s26.667 35.333 36 66h54z" />
    <glyph glyph-name="hungarumlaut" unicode="&#x2dd;" horiz-adv-x="1024" 
d="M217 1079l144 273.002c16 29.333 31.167 50.333 45.5 63s29.833 19 46.5 19c18.667 0 34.667 -6.66699 48 -20s20 -29 20 -47c0 -10.667 -3.5 -22.334 -10.5 -35.001s-17.167 -26.334 -30.5 -41.001l-205 -212h-58zM502 1079l144 273.002
c16 29.333 31.167 50.333 45.5 63s29.833 19 46.5 19c18.667 0 34.667 -6.66699 48 -20s20 -29 20 -47c0 -10.667 -3.5 -22.334 -10.5 -35.001s-17.167 -26.334 -30.5 -41.001l-205 -212h-58z" />
    <glyph glyph-name="endash" unicode="&#x2013;" horiz-adv-x="1108" 
d="M56 419v120h996v-120h-996z" />
    <glyph glyph-name="emdash" unicode="&#x2014;" horiz-adv-x="2048" 
d="M0 419v120h2048v-120h-2048z" />
    <glyph glyph-name="quoteleft" unicode="&#x2018;" horiz-adv-x="557" 
d="M319 1016c-29.333 0 -58.832 21.833 -88.499 65.5s-44.5 94.167 -44.5 151.5c0 72.667 23.667 148.167 71 226.5s93.666 117.5 138.999 117.5v-43c-48.667 -28.667 -77.667 -92 -87 -190c0 -79.333 43 -133 129 -161v-42z" />
    <glyph glyph-name="quoteright" unicode="&#x2019;" horiz-adv-x="557" 
d="M238 1577c29.333 0 58.832 -21.833 88.499 -65.5s44.5 -94.167 44.5 -151.5c0 -72.667 -23.667 -148.167 -71 -226.5s-93.666 -117.5 -138.999 -117.5v43c48.667 28.667 77.667 92 87 190c0 79.333 -43 133 -129 161v42z" />
    <glyph glyph-name="quotesinglbase" unicode="&#x201a;" horiz-adv-x="557" 
d="M238 281c29.333 0 58.832 -21.833 88.499 -65.5s44.5 -94.167 44.5 -151.5c0 -72.667 -23.667 -148.167 -71 -226.5s-93.666 -117.5 -138.999 -117.5v43c48.667 28.667 77.667 92 87 190c0 79.333 -43 133 -129 161v42z" />
    <glyph glyph-name="quotedblleft" unicode="&#x201c;" horiz-adv-x="910" 
d="M319 1016c-29.333 0 -58.832 21.833 -88.499 65.5s-44.5 94.167 -44.5 151.5c0 72.667 23.667 148.167 71 226.5s93.666 117.5 138.999 117.5v-43c-48.667 -28.667 -77.667 -92 -87 -190c0 -79.333 43 -133 129 -161v-42zM672.001 1016
c-29.333 0 -58.832 21.833 -88.499 65.5s-44.5 94.167 -44.5 151.5c0 72.667 23.667 148.167 71 226.5s93.666 117.5 138.999 117.5v-43c-48.667 -28.667 -77.667 -92 -87 -190c0 -79.333 43 -133 129 -161v-42z" />
    <glyph glyph-name="quotedblright" unicode="&#x201d;" horiz-adv-x="910" 
d="M238 1577c29.333 0 58.832 -21.833 88.499 -65.5s44.5 -94.167 44.5 -151.5c0 -72.667 -23.667 -148.167 -71 -226.5s-93.666 -117.5 -138.999 -117.5v43c48.667 28.667 77.667 92 87 190c0 79.333 -43 133 -129 161v42zM590.999 1577
c29.333 0 58.832 -21.833 88.499 -65.5s44.5 -94.167 44.5 -151.5c0 -72.667 -23.667 -148.167 -71 -226.5s-93.666 -117.5 -138.999 -117.5v43c48.667 28.667 77.667 92 87 190c0 79.333 -43 133 -129 161v42z" />
    <glyph glyph-name="quotedblbase" unicode="&#x201e;" horiz-adv-x="910" 
d="M238 281c29.333 0 58.832 -21.833 88.499 -65.5s44.5 -94.167 44.5 -151.5c0 -72.667 -23.667 -148.167 -71 -226.5s-93.666 -117.5 -138.999 -117.5v43c48.667 28.667 77.667 92 87 190c0 79.333 -43 133 -129 161v42zM590.999 281
c29.333 0 58.832 -21.833 88.499 -65.5s44.5 -94.167 44.5 -151.5c0 -72.667 -23.667 -148.167 -71 -226.5s-93.666 -117.5 -138.999 -117.5v43c48.667 28.667 77.667 92 87 190c0 79.333 -43 133 -129 161v42z" />
    <glyph glyph-name="dagger" unicode="&#x2020;" 
d="M486 1022c-5.33301 64.667 -23.332 123.999 -53.999 177.999c-38 67.333 -57 110.333 -57 129c0 32.667 12 58.834 36 78.501s56 29.5 96 29.5c38 0 69.5 -9.16699 94.5 -27.5s37.5 -42.166 37.5 -71.499c0 -21.333 -18.333 -67 -55 -137
c-30.667 -56.667 -49 -116.334 -55 -179.001c64 5.33301 123 23.333 177 54c67.333 38 110.333 57 129 57c32.667 0 59 -12 79 -36s30 -56 30 -96c0 -38 -9.16699 -69.5 -27.5 -94.5s-42.5 -37.5 -72.5 -37.5c-21.333 0 -66.666 18.333 -135.999 55
c-56.667 30.667 -116.334 49.667 -179.001 57c5.33301 -117.333 42 -209.666 110 -276.999c-70.667 -306.667 -108 -631.334 -112 -974.001h-38c-4 342.667 -42 667.334 -114 974.001c68 67.333 105 159.666 111 276.999c-64 -6.66699 -123.333 -25 -178 -55
c-67.333 -38 -110.333 -57 -129 -57c-32.667 0 -58.834 12 -78.501 36s-29.5 56 -29.5 96c0 38 9.16699 69.5 27.5 94.5s42.166 37.5 71.499 37.5c21.333 0 67 -18.667 137 -56c56.667 -30.667 116.334 -49 179.001 -55z" />
    <glyph glyph-name="daggerdbl" unicode="&#x2021;" 
d="M528 186c62.667 7.33301 122.334 26.3311 179.001 56.998c69.333 36.667 114.666 55 135.999 55c30 0 54.167 -12.5 72.5 -37.5s27.5 -56.5 27.5 -94.5c0 -40 -10 -72 -30 -96s-46.333 -36 -79 -36c-18.667 0 -61.667 19 -129 57c-54 30.667 -113 48.667 -177 54
c6 -62.667 24.333 -122.334 55 -179.001c36.667 -70 55 -115.667 55 -137c0 -29.333 -12.5 -53.166 -37.5 -71.499s-56.5 -27.5 -94.5 -27.5c-40 0 -72 9.83301 -96 29.5s-36 45.834 -36 78.501c0 18.667 19 61.667 57 129c30.667 54 48.667 113.333 54 178
c-62.667 -6 -122.334 -24.333 -179.001 -55c-70 -37.333 -115.667 -56 -137 -56c-29.333 0 -53.166 12.5 -71.499 37.5s-27.5 56.5 -27.5 94.5c0 40 9.83301 72 29.5 96s45.834 36 78.501 36c18.667 0 61.667 -19 129 -57c54.667 -30 114 -48.333 178 -55
c-6 150.667 -43 283.334 -111 398.001c68 114 105 246.333 111 397c-64 -6.66699 -123.333 -25 -178 -55c-67.333 -38 -110.333 -57 -129 -57c-32.667 0 -58.834 12 -78.501 36s-29.5 56 -29.5 96c0 38 9.16699 69.5 27.5 94.5s42.166 37.5 71.499 37.5
c21.333 0 67 -18.667 137 -56c56.667 -30.667 116.334 -49 179.001 -55c-5.33301 64.667 -23.333 124 -54 178c-38 67.333 -57 110.333 -57 129c0 32.667 12 58.834 36 78.501s56 29.5 96 29.5c38 0 69.5 -9.16699 94.5 -27.5s37.5 -42.166 37.5 -71.499
c0 -21.333 -18.333 -67 -55 -137c-30.667 -56.667 -49 -116.334 -55 -179.001c64 5.33301 123 23.333 177 54c67.333 38 110.333 57 129 57c32.667 0 59 -12 79 -36s30 -56 30 -96c0 -38 -9.16699 -69.5 -27.5 -94.5s-42.5 -37.5 -72.5 -37.5
c-21.333 0 -66.666 18.333 -135.999 55c-56.667 30.667 -116.334 49.667 -179.001 57c5.33301 -150.667 42 -283 110 -397c-68 -114.667 -104.667 -247.334 -110 -398.001z" />
    <glyph glyph-name="bullet" unicode="&#x2022;" horiz-adv-x="1024" 
d="M216 718c0 82 28.999 151.666 86.999 208.999s128 86 210 86c81.333 0 150.833 -28.833 208.5 -86.5s86.5 -127.167 86.5 -208.5s-29.167 -151.166 -87.5 -209.499s-128.166 -87.5 -209.499 -87.5c-82 0 -151.667 29 -209 87s-86 128 -86 210z" />
    <glyph glyph-name="ellipsis" unicode="&#x2026;" horiz-adv-x="2048" 
d="M145 167l82.001 84c10 9.33301 19.667 14 29 14c8.66699 0 19 -5.33301 31 -16l80 -86c8 -10.667 12 -20.334 12 -29.001c0 -10 -4.66699 -20.333 -14 -31l-80 -88c-13.333 -13.333 -23 -20 -29 -20c-10.667 0 -20.334 4.66699 -29.001 14l-88 101
c-6.66699 8.66699 -10 17.334 -10 26.001c0 10 5.33301 20.333 16 31zM828.001 167l82.001 84c10 9.33301 19.667 14 29 14c8.66699 0 19 -5.33301 31 -16l80 -86c8 -10.667 12 -20.334 12 -29.001c0 -10 -4.66699 -20.333 -14 -31l-80 -88c-13.333 -13.333 -23 -20 -29 -20
c-10.667 0 -20.334 4.66699 -29.001 14l-88 101c-6.66699 8.66699 -10 17.334 -10 26.001c0 10 5.33301 20.333 16 31zM1511 167l82.001 84c10 9.33301 19.667 14 29 14c8.66699 0 19 -5.33301 31 -16l80 -86c8 -10.667 12 -20.334 12 -29.001
c0 -10 -4.66699 -20.333 -14 -31l-80 -88c-13.333 -13.333 -23 -20 -29 -20c-10.667 0 -20.334 4.66699 -29.001 14l-88 101c-6.66699 8.66699 -10 17.334 -10 26.001c0 10 5.33301 20.333 16 31z" />
    <glyph glyph-name="guilsinglleft" unicode="&#x2039;" horiz-adv-x="631" 
d="M174 479l342 303h14v-37l-205 -266l205 -266v-37h-14z" />
    <glyph glyph-name="guilsinglright" unicode="&#x203a;" horiz-adv-x="631" 
d="M115 176h-14v37l205 266l-205 266v37h14l342 -303z" />
    <glyph glyph-name="fraction" unicode="&#x2044;" horiz-adv-x="342" 
d="M-342 -29l940 1461h84l-938 -1461h-86z" />
    <glyph glyph-name="fraction" unicode="&#x2215;" horiz-adv-x="342" 
d="M-342 -29l940 1461h84l-938 -1461h-86z" />
    <glyph glyph-name="franc" unicode="&#x20a3;" 
d="M247 357h-194.001v60h194v732c0 156.667 -34.333 235 -103 235h-96v50h915l103 -231h-49c-39.333 121.333 -102.666 182 -189.999 182l-316 -1c-68 0 -102 -78.333 -102 -235v-352h361c66.667 0 100 21 100 63v58h50v-342h-50v60c0 41.333 -33.333 62 -100 62h-361v-281
h194v-60h-194v-72c0 -156.667 34 -235 102 -235h97v-50h-560v50h96c68.667 0 103 78.333 103 235v72z" />
    <glyph glyph-name="lira" unicode="&#x20a4;" 
d="M748 1347c-48 20.667 -101.333 30.999 -160 30.999h-2c-66.667 0 -130 -33.667 -190 -101c-56 -62 -84 -142.333 -84 -241c0 -10 0.333008 -20 1 -30c0 -70.667 11 -141.667 33 -213h380v-60h-360c8 -20 16.667 -40 26 -60h352v-60h-321c23.333 -42 35 -88 35 -138
c0 -107.333 -54 -232.333 -162 -375h402c86.667 0 149.667 44 189 132l49 -1l-103 -231h-719l1 50c124.667 158.667 187 298 187 418c0 51.333 -11.333 99 -34 143l-2 2h-172v60h143l-26 60h-135v60h113c-24 71.333 -36 135.666 -36 192.999
c0 150.667 41.167 266.334 123.5 347.001s185.833 121 310.5 121c50 0 111.833 -4.66699 185.5 -14s110.5 -20.666 110.5 -33.999v-161h-58c-3.33301 40.667 -29 74.667 -77 102z" />
    <glyph glyph-name="peseta" unicode="&#x20a7;" horiz-adv-x="2028" 
d="M409 1384v-661.999c2 -6 4.33301 -11.667 7 -17c27.333 -68 63.333 -119 108 -153c38 -29.333 76.667 -44 116 -44c6.66699 0 13 0.333008 19 1c45.333 5.33301 87.666 30.333 126.999 75s68.333 103.667 87 177c14.667 58 22 117.667 22 179
c0 16 -0.333008 31.667 -1 47c-4.66699 77.333 -21.167 150.166 -49.5 218.499s-64.5 116.5 -108.5 144.5c-37.333 23.333 -74.666 35 -111.999 35c-6.66699 0 -13.667 -0.333008 -21 -1h-194zM1496 908.001h-178.999v-685c0 -54 11.333 -93.667 34 -119
c18.667 -20.667 45.667 -33 81 -37l-71 192l49 1c36.667 -86.667 74.667 -144.667 114 -174c38 -29.333 80.333 -44 127 -44h7c61.333 0 111.666 17.333 150.999 52c39.333 35.333 59 80.666 59 135.999c0 68 -86.333 143.333 -259 226c-67.333 34.667 -115.333 72 -144 112
s-43 88.333 -43 145c0 80.667 24.333 145.334 73 194.001zM1039 910.001c-4.66699 -67.333 -20.6621 -131.999 -47.9951 -193.999c-33.333 -76 -80.333 -135.167 -141 -177.5s-124 -63.5 -190 -63.5c-66.667 0 -130.334 21.333 -191.001 64c-22 14.667 -42 31.667 -60 51
v-305c0 -156.667 34 -235 102 -235h97v-50h-560v50h96c68.667 0 103 78.333 103 235v864c0 156.667 -34.333 235 -103 235h-96v50h618c61.333 -1.33301 121.666 -22 180.999 -62c60.667 -41.333 108.334 -100.333 143.001 -177c33.333 -75.333 50.333 -154.333 51 -237h10
c144 0 216 118.333 216 355h50v-355h259c28 12.667 64.667 19.334 110 20.001h2c36 0 80.5 -4.5 133.5 -13.5s79.5 -20.167 79.5 -33.5v-159h-42c-2.66699 44 -24.5 80 -65.5 108s-85.5 42 -133.5 42c-42.667 0 -76.834 -12.167 -102.501 -36.5s-38.5 -56.5 -38.5 -96.5
c0 -72 78.333 -145.333 235 -220c81.333 -36.667 137.166 -75.834 167.499 -117.501s45.5 -92.834 45.5 -153.501c0 -93.333 -27.667 -170.333 -83 -231c-68 -56 -144 -84.667 -228 -86c-38.667 0 -73.667 3.66699 -105 11c-18.667 4 -37.334 6 -56.001 6
c-12 0 -24 -1 -36 -3c-18.667 -3.33301 -38.334 -5 -59.001 -5c-82.667 0 -140.5 19 -173.5 57s-52.167 96.667 -57.5 176h-1v687h-129z" />
    <glyph glyph-name="Euro" unicode="&#x20ac;" 
d="M140 372c-41.333 90 -66.6641 183.667 -75.9971 281h-108l17 60h87v29c0 10.667 0.333008 21 1 31h-71l17 60h58c9.33301 96.667 34.666 190.334 75.999 281.001c54 118.667 129.333 210 226 274s196 96 298 96c28.667 0 57.667 -2.66699 87 -8
c26.667 -6.66699 54 -16.334 82 -29.001c5.33301 -4 10.666 -6 15.999 -6c13.333 0 24.666 15 33.999 45h41l84 -281l-40 -1c-32.667 89.333 -78.667 148.666 -138 177.999c-28.667 14.667 -55.667 25.334 -81 32.001v3c-33.333 10.667 -67 16 -101 16
c-11.333 0 -22.666 -0.666992 -33.999 -2c-80 -8 -155.333 -45.833 -226 -113.5s-123 -158.834 -157 -273.501c-21.333 -69.333 -34.333 -139.666 -39 -210.999h706l-17 -60h-692c0 -20 0.666992 -40 2 -60h674l-17 -60h-652c11.333 -105.333 39 -204.666 83 -297.999
c49.333 -104.667 113.666 -183.334 192.999 -236.001c68 -45.333 140 -68.333 216 -69c124 2 209.333 32.333 256 91c49.333 60.667 74 122.334 74 185.001h48v-143c0 -46.667 -37 -89 -111 -127c-70 -36 -159 -54.667 -267 -56c-120.667 0 -229.167 32.667 -325.5 98
s-170.833 156.666 -223.5 273.999z" />
    <glyph glyph-name="afii61352" unicode="&#x2116;" horiz-adv-x="2271" 
 />
    <glyph glyph-name="trademark" unicode="&#x2122;" horiz-adv-x="1497" 
 />
    <glyph glyph-name="partialdiff" unicode="&#x2202;" 
d="M232 537c0 -27.333 1.66504 -53.668 4.99805 -79.001c9.33301 -81.333 29.833 -158 61.5 -230s71.167 -127 118.5 -165c42.667 -35.333 85.334 -53 128.001 -53c4 0 8.33301 0.333008 13 1c46.667 3.33301 89.167 26.833 127.5 70.5s65.166 103.5 80.499 179.5
c10.667 48.667 16 98.334 16 149.001c0 28 -1.66699 56.333 -5 85c-9.33301 81.333 -30.166 158.5 -62.499 231.5s-72.166 128.167 -119.499 165.5c-43.333 33.333 -86 50 -128 50h-11c-45.333 -3.33301 -87.333 -26.5 -126 -69.5s-66 -102.5 -82 -178.5
c-10.667 -56 -16 -108.333 -16 -157zM936.998 476.998c0 -88 -18.835 -171.669 -56.502 -251.002s-90.667 -141 -159 -185s-139.833 -66 -214.5 -66s-146.167 22 -214.5 66s-121.333 105.667 -159 185s-56.5 163 -56.5 251c0 87.333 19.333 171 58 251
s92.334 141.667 161.001 185s139 65 211 65c72.667 0 143.334 -21.667 212.001 -65c19.333 -12 37.333 -25.667 54 -41c-56 156.667 -133.833 282.334 -233.5 377.001s-208.5 146.334 -326.5 155.001v55c204 0 375.667 -95 515 -285s209 -422.333 209 -697z" />
    <glyph glyph-name="Delta" unicode="&#x2206;" horiz-adv-x="1081" 
d="M514 1195l-406 -1072h801zM547 1434l526 -1434h-1067z" />
    <glyph glyph-name="product" unicode="&#x220f;" horiz-adv-x="1515" 
d="M511 1384c-68 0 -102 -78.333 -102 -235v-1281c0 -156.667 34 -235 102 -235h97v-51h-560v51h96c68.667 0 103 78.333 103 235v1281c0 156.667 -34.333 235 -103 235h-96v50h1419v-50h-97c-68 0 -102 -78.333 -102 -235v-1281c0 -156.667 34 -235 102 -235h97v-50h-560
v50h96c68.667 0 103 78.333 103 235v1281c0 156.667 -34.333 235 -103 235h-492z" />
    <glyph glyph-name="summation" unicode="&#x2211;" horiz-adv-x="1206" 
d="M1059 548l-788 -914h635c86.667 0 149.667 60.667 189 182h49l-103 -232h-921v50c41.333 0 76.666 17.667 105.999 53l663 781l-663 859c-29.333 38 -64.666 57 -105.999 57v50h921l103 -232h-49c-39.333 121.333 -102.333 182 -189 182h-485z" />
    <glyph glyph-name="minus" unicode="&#x2212;" 
d="M87 647v140h839l1 -1v-139h-840z" />
    <glyph glyph-name="radical" unicode="&#x221a;" 
d="M181 0l-164 359l74 35l85 -185l728 1470h150v-60h-72z" />
    <glyph glyph-name="infinity" unicode="&#x221e;" 
d="M439 755c-10 68.667 -34.666 113 -73.999 133c-30.667 14.667 -58.667 22 -84 22c-8 0 -15.667 -0.666992 -23 -2c-32.667 -6.66699 -63.5 -21.5 -92.5 -44.5s-50.833 -51.167 -65.5 -84.5c-13.333 -30.667 -20 -60.667 -20 -90v-8c1.33301 -32 10.5 -61.667 27.5 -89
s40.833 -46.666 71.5 -57.999c19.333 -7.33301 39.666 -11 60.999 -11c10.667 0 21.667 1 33 3c31.333 6.66699 61.5 21.167 90.5 43.5s54.167 84.166 75.5 185.499zM466.001 687c8 -64 39.333 -115 94 -153c46 -32 87 -48 123 -48c7.33301 0 14.333 0.666992 21 2
c41.333 8 80.5 25.333 117.5 52s65.167 60.334 84.5 101.001c17.333 36 26 72 26 108v11c-1.33301 40 -13.166 76.167 -35.499 108.5s-52.833 55.166 -91.5 68.499c-24.667 8.66699 -50 13 -76 13c-14.667 0 -29.334 -1.33301 -44.001 -4c-44.667 -6 -87 -26.667 -127 -62
s-70.667 -101 -92 -197zM450.001 827c6 23.333 13 46.335 21 69.002c22.667 58.667 54.334 104.334 95.001 137.001s83.334 49 128.001 49s87.334 -16 128.001 -48s72.334 -77 95.001 -135s34 -118.667 34 -182s-11.333 -124 -34 -182s-54.334 -103 -95.001 -135
s-83.334 -48 -128.001 -48s-87.334 16.333 -128.001 49s-72.334 78 -95.001 136c-8 23.333 -15 46.666 -21 69.999c-3.33301 -14 -7.33301 -27.667 -12 -41c-18 -48.667 -42.667 -86.334 -74 -113.001s-64.333 -40 -99 -40s-68 13.667 -100 41s-56.5 65.166 -73.5 113.499
s-25.5 98.166 -25.5 149.499c0 50.667 8.5 100.334 25.5 149.001s41.5 86.667 73.5 114s65.333 41 100 41s67.667 -13.333 99 -40s56 -64 74 -112c4.66699 -14 8.66699 -28 12 -42z" />
    <glyph glyph-name="integral" unicode="&#x222b;" horiz-adv-x="665" 
d="M-12 -281c-40 0 -59.9971 9.66699 -59.9971 29v159h36c0.666992 -28.667 12.167 -50.167 34.5 -64.5s43.5 -21.5 63.5 -21.5h1c54.667 0 93 54 115 162c21.333 108 34.666 213.333 39.999 316l70 734l8 62c18 158.667 63 301.834 135 429.501s150 191.5 234 191.5
c40 0 60 -9.66699 60 -29v-159h-36c-0.666992 28.667 -12.334 50.167 -35.001 64.5s-43.667 21.5 -63 21.5c-47.333 0 -86 -51.833 -116 -155.5s-46.333 -224.834 -49 -363.501l-73 -767c-13.333 -154 -56.833 -294 -130.5 -420s-151.834 -189 -234.501 -189z" />
    <glyph glyph-name="approxequal" unicode="&#x2248;" 
d="M923 1053l-0.00195312 -156c-42 -48 -82.667 -80.5 -122 -97.5s-78 -25.5 -116 -25.5c-40 0 -99.167 16.167 -177.5 48.5s-137.166 48.5 -176.499 48.5c-34 0 -69.833 -9.33301 -107.5 -28s-80.834 -56 -129.501 -112v156c42.667 48.667 83.667 81.667 123 99
s77.333 26 114 26c42.667 0 103.167 -16.5 181.5 -49.5s135.833 -49.5 172.5 -49.5c34.667 0 70.834 9.33301 108.501 28s80.834 56 129.501 112zM922.998 705l-0.00195312 -156c-42 -48 -82.667 -80.5 -122 -97.5s-78 -25.5 -116 -25.5c-40 0 -99.167 16.167 -177.5 48.5
s-137.166 48.5 -176.499 48.5c-34 0 -69.833 -9.33301 -107.5 -28s-80.834 -56 -129.501 -112v156c42.667 48.667 83.667 81.667 123 99s77.333 26 114 26c42.667 0 103.167 -16.5 181.5 -49.5s135.833 -49.5 172.5 -49.5c34.667 0 70.834 9.33301 108.501 28
s80.834 56 129.501 112z" />
    <glyph glyph-name="lessequal" unicode="&#x2264;" 
d="M927 1074l-625 -359l625 -355v-167l-840 481v83l840 484v-167zM87 1v140h839l1 -1v-139h-840z" />
    <glyph glyph-name="greaterequal" unicode="&#x2265;" 
d="M87 1241l840 -484v-83l-840 -481v167l625 355l-625 359v167zM87 2v140h839l1 -1v-139h-840z" />
    <glyph glyph-name="uniF001" unicode="&#xf001;" horiz-adv-x="1073" 
 />
    <glyph glyph-name="uniF001" unicode="&#xfb01;" horiz-adv-x="1073" 
 />
    <glyph glyph-name="uniF002" unicode="&#xf002;" horiz-adv-x="1081" 
 />
    <glyph glyph-name="uniF002" unicode="&#xfb02;" horiz-adv-x="1081" 
 />
    <glyph glyph-name=".null" horiz-adv-x="0" 
 />
    <glyph glyph-name="nonmarkingreturn" horiz-adv-x="508" 
 />
  </font>
</defs>
</svg>
